<?xml version="1.0" encoding="UTF-8"?><svg id="Layer_1" xmlns="http://www.w3.org/2000/svg" xmlns:xlink="http://www.w3.org/1999/xlink" viewBox="0 0 1232.02 411.97"><defs><style>.cls-1{fill:#72727a;}.cls-1,.cls-2,.cls-3,.cls-4,.cls-5,.cls-6,.cls-7,.cls-8,.cls-9,.cls-10,.cls-11,.cls-12,.cls-13,.cls-14,.cls-15,.cls-16,.cls-17,.cls-18,.cls-19,.cls-20,.cls-21,.cls-22,.cls-23,.cls-24,.cls-25,.cls-26,.cls-27,.cls-28,.cls-29{stroke-width:0px;}.cls-2{fill:#696970;}.cls-3{fill:#262629;}.cls-4{fill:#85858d;}.cls-5{fill:#00d68e;}.cls-6,.cls-30,.cls-31,.cls-32{fill:none;}.cls-7{fill:#303033;}.cls-8{fill:#39393d;}.cls-9{fill:url(#linear-gradient);}.cls-10{fill:#ebebed;}.cls-30{stroke:#76a2ff;}.cls-30,.cls-31,.cls-32{stroke-miterlimit:10;}.cls-30,.cls-32{stroke-width:3px;}.cls-31{stroke:url(#linear-gradient-3);stroke-dasharray:0 0 3.98 3.98;stroke-width:2px;}.cls-11{fill:#ffc44e;}.cls-12{fill:#76a2ff;}.cls-13{fill:#141415;}.cls-14{fill:#4c4c52;}.cls-15{fill:#0a0a0b;}.cls-16{fill:url(#linear-gradient-4);}.cls-17{fill:url(#linear-gradient-2);}.cls-18{fill:url(#linear-gradient-8);}.cls-19{fill:url(#linear-gradient-7);}.cls-20{fill:url(#linear-gradient-5);}.cls-21{fill:url(#linear-gradient-6);}.cls-22{fill:#1d1d1f;}.cls-23{fill:#ff1462;}.cls-24{fill:#cdcdd0;}.cls-25{fill:#cccccf;}.cls-26{fill:#ffa800;}.cls-27{fill:#9dbeff;}.cls-28{fill:#00d5ff;}.cls-29{fill:#434348;}.cls-32{stroke:#cccccf;stroke-linecap:round;}</style><linearGradient id="linear-gradient" x1="590.35" y1="0" x2="590.35" y2="309.67" gradientUnits="userSpaceOnUse"><stop offset="0" stop-color="#c44eff"/><stop offset="1" stop-color="#39393d"/></linearGradient><linearGradient id="linear-gradient-2" x1="590.35" y1="104.57" x2="590.35" y2="278.26" gradientUnits="userSpaceOnUse"><stop offset="0" stop-color="#00d78f"/><stop offset="1" stop-color="#39393d"/></linearGradient><linearGradient id="linear-gradient-3" x1="607.22" y1="163.53" x2="607.22" y2="257.29" gradientUnits="userSpaceOnUse"><stop offset="0" stop-color="#76a2ff"/><stop offset="1" stop-color="#39393d"/></linearGradient><linearGradient id="linear-gradient-4" x1="118.69" y1="62.83" x2="118.69" y2="216.43" gradientUnits="userSpaceOnUse"><stop offset="0" stop-color="#00d4ff"/><stop offset="1" stop-color="#39393d"/></linearGradient><linearGradient id="linear-gradient-5" x1="314.17" y1="216.48" x2="314.17" y2="370.08" gradientUnits="userSpaceOnUse"><stop offset="0" stop-color="#ffa900"/><stop offset="1" stop-color="#39393d"/></linearGradient><linearGradient id="linear-gradient-6" x1="940.25" y1="139.63" x2="940.25" y2="370.02" gradientUnits="userSpaceOnUse"><stop offset="0" stop-color="#ff27db"/><stop offset="1" stop-color="#39393d"/></linearGradient><linearGradient id="linear-gradient-7" x1="575.4" y1="30.36" x2="614.96" y2="53.2" gradientUnits="userSpaceOnUse"><stop offset="0" stop-color="#05f"/><stop offset="1" stop-color="#00d5ff"/></linearGradient><linearGradient id="linear-gradient-8" x1="604.82" y1="52.14" x2="565.27" y2="29.3" gradientUnits="userSpaceOnUse"><stop offset="0" stop-color="#05f"/><stop offset="1" stop-color="#a0f"/></linearGradient></defs><rect class="cls-13" x="475.15" y="0" width="230.39" height="309.67" rx="8" ry="8"/><path class="cls-9" d="M697.55,3c2.76,0,5,2.24,5,5v293.67c0,2.76-2.24,5-5,5h-214.39c-2.76,0-5-2.24-5-5V8c0-2.76,2.24-5,5-5h214.39M697.55,0h-214.39c-4.42,0-8,3.58-8,8v293.67c0,4.42,3.58,8,8,8h214.39c4.42,0,8-3.58,8-8V8C705.55,3.58,701.96,0,697.55,0h0Z"/><rect class="cls-3" x="506.57" y="104.57" width="167.56" height="173.69" rx="8" ry="8"/><path class="cls-17" d="M666.13,107.57c2.76,0,5,2.24,5,5v157.69c0,2.76-2.24,5-5,5h-151.56c-2.76,0-5-2.24-5-5V112.57c0-2.76,2.24-5,5-5h151.56M666.13,104.57h-151.56c-4.42,0-8,3.58-8,8v157.69c0,4.42,3.58,8,8,8h151.56c4.42,0,8-3.58,8-8V112.57c0-4.42-3.58-8-8-8h0Z"/><path class="cls-24" d="M545,127.08h2.58c.46,0,.89.06,1.29.17.4.11.77.27,1.09.47.29.17.54.38.77.62.23.24.42.51.59.8.2.35.35.74.46,1.16.11.42.16.88.16,1.35v.82c0,.46-.05.9-.15,1.31s-.24.79-.42,1.13c-.17.31-.38.59-.61.84-.23.26-.49.47-.77.65-.32.21-.68.36-1.07.47-.39.11-.81.16-1.25.16h-2.67v-9.95ZM546.93,135.49h.74c.24,0,.46-.03.66-.09s.39-.15.56-.26c.17-.12.33-.27.47-.45.14-.19.26-.4.36-.65.08-.21.14-.45.19-.71.04-.26.07-.54.07-.85v-.83c0-.29-.02-.56-.07-.82-.04-.26-.11-.49-.19-.71-.1-.25-.23-.48-.39-.68-.16-.2-.35-.36-.56-.49-.16-.1-.35-.17-.54-.22-.2-.05-.41-.08-.65-.08h-.64v6.85Z"/><path class="cls-24" d="M558.8,127.08h2.11l-3.13,6.51v3.45h-1.92v-3.53s-3.09-6.43-3.09-6.43h2.11l1.96,4.59,1.96-4.59Z"/><path class="cls-24" d="M566.49,137.04l-2.77-6.42v6.42h-1.93v-9.95h1.93l2.75,6.39v-6.39h1.93v9.95h-1.91Z"/><path class="cls-24" d="M572.15,134.96l-.59,2.08h-2.02l3.26-9.95h1.74l3.2,9.95h-2.02l-.58-2.08h-2.99ZM574.69,133.32l-1.02-3.66-1.05,3.66h2.06Z"/><path class="cls-24" d="M581.95,130.82l1.07-3.74h2.39v9.95h-1.76v-2.95l.08-4.66-1.31,4.32h-.95l-1.17-4.14.08,4.47v2.95h-1.76v-9.95h2.39l.94,3.74Z"/><path class="cls-24" d="M593.22,127.08v1.55h-1.94v6.86h1.94v1.54h-5.76v-1.54h1.89v-6.86h-1.89v-1.55h5.76Z"/><path class="cls-24" d="M602.03,135.27c-.19.4-.43.74-.74,1.03s-.68.5-1.11.65c-.43.15-.9.23-1.42.23-.41,0-.79-.05-1.14-.16-.35-.11-.66-.26-.94-.46-.25-.19-.48-.41-.68-.68-.2-.26-.37-.56-.5-.88-.13-.32-.23-.67-.3-1.05-.07-.38-.11-.79-.11-1.22v-1.34c0-.4.03-.78.1-1.15.06-.36.16-.7.29-1.01.15-.38.34-.72.57-1.01s.51-.55.81-.75c.27-.17.56-.31.89-.4.32-.09.67-.14,1.04-.14.55,0,1.03.08,1.46.23.43.16.79.38,1.09.66s.54.64.71,1.05.28.88.33,1.4h-1.91c-.02-.3-.06-.56-.13-.78-.07-.22-.17-.41-.3-.56-.14-.15-.31-.26-.51-.33-.2-.08-.45-.11-.73-.11-.15,0-.29.02-.42.05-.13.03-.25.08-.36.14-.19.11-.35.27-.47.47-.13.2-.23.44-.31.71-.06.21-.1.44-.13.69-.03.25-.04.53-.04.82v1.35c0,.4.02.75.06,1.06.04.31.11.58.2.82.06.16.14.3.23.42.09.12.19.23.3.31.12.09.26.16.41.2.15.04.32.06.51.06.25,0,.48-.03.68-.1s.37-.16.51-.3.25-.31.33-.53.13-.47.15-.77h1.92c-.03.5-.14.95-.32,1.35Z"/><path class="cls-24" d="M605.75,134.96l-.59,2.08h-2.02l3.26-9.95h1.74l3.2,9.95h-2.02l-.58-2.08h-2.99ZM608.29,133.32l-1.02-3.66-1.05,3.66h2.06Z"/><path class="cls-24" d="M618.97,135.48v1.55h-6.59v-9.95h1.93v8.4h4.66Z"/><path class="cls-24" d="M627.37,135.48v1.55h-6.59v-9.95h1.93v8.4h4.66Z"/><path class="cls-24" d="M634.41,127.08h2.11l-3.13,6.51v3.45h-1.92v-3.53s-3.09-6.43-3.09-6.43h2.11l1.96,4.59,1.96-4.59Z"/><path class="cls-24" d="M526.08,153.04h-1.92v-9.95h3.4c.54,0,1.03.08,1.47.24.44.16.81.37,1.12.65.31.28.54.62.71,1.01.17.39.25.83.25,1.31,0,.45-.08.86-.25,1.24-.17.38-.4.7-.71.98-.31.28-.68.49-1.12.65s-.93.23-1.47.23h-1.48v3.65ZM527.56,147.83c.27,0,.51-.04.71-.12s.37-.19.51-.33c.13-.14.23-.3.3-.49.07-.18.1-.38.1-.58,0-.23-.03-.45-.1-.65-.07-.2-.17-.38-.3-.53-.14-.15-.31-.27-.51-.36s-.44-.13-.71-.13h-1.48v3.19h1.48Z"/><path class="cls-24" d="M534.34,150.96l-.59,2.08h-2.02l3.26-9.95h1.74l3.2,9.95h-2.02l-.58-2.08h-2.99ZM536.88,149.32l-1.02-3.66-1.05,3.66h2.06Z"/><path class="cls-24" d="M542.76,149.32v3.72h-1.92v-9.95h3.34c.55,0,1.05.06,1.5.2.45.13.83.32,1.15.57.31.25.56.56.73.94.17.37.26.81.26,1.3,0,.36-.04.68-.13.96-.08.29-.2.54-.36.76-.16.23-.35.43-.57.59-.22.17-.47.31-.74.44l2.14,4.11v.09h-2.06l-1.87-3.72h-1.46ZM544.18,147.76c.3,0,.56-.04.78-.13.22-.08.41-.21.55-.37.12-.13.21-.28.27-.46.06-.18.09-.38.09-.59,0-.26-.04-.5-.12-.7-.08-.2-.2-.37-.36-.5-.14-.12-.31-.21-.52-.27s-.44-.1-.7-.1h-1.42v3.12h1.42Z"/><path class="cls-24" d="M553.48,144.65v8.39h-1.93v-8.39h-3.03v-1.57h8.03v1.57h-3.07Z"/><path class="cls-24" d="M563.82,143.08v1.55h-1.94v6.86h1.94v1.54h-5.76v-1.54h1.89v-6.86h-1.89v-1.55h5.76Z"/><path class="cls-24" d="M570.29,144.65v8.39h-1.93v-8.39h-3.03v-1.57h8.03v1.57h-3.07Z"/><path class="cls-24" d="M580.62,143.08v1.55h-1.94v6.86h1.94v1.54h-5.76v-1.54h1.89v-6.86h-1.89v-1.55h5.76Z"/><path class="cls-24" d="M589.67,150.01c-.08.39-.19.74-.33,1.07-.16.33-.35.63-.57.9s-.49.5-.78.68c-.26.16-.55.28-.87.37-.32.09-.66.13-1.02.13-.39,0-.75-.05-1.07-.15s-.63-.24-.9-.42c-.26-.19-.5-.42-.71-.69-.21-.27-.38-.58-.53-.92-.13-.31-.22-.66-.29-1.03-.07-.37-.1-.76-.1-1.17v-1.45c0-.44.04-.85.11-1.24.07-.39.19-.75.33-1.09.14-.31.31-.6.52-.85.2-.25.44-.47.7-.66.26-.18.55-.31.88-.41s.67-.14,1.05-.14.74.05,1.08.15c.33.1.64.24.91.42.27.17.5.38.71.63.2.25.38.52.52.81.16.34.28.71.37,1.11.08.4.13.83.13,1.28v1.45c0,.43-.04.83-.12,1.22ZM587.8,146.6c-.03-.23-.07-.44-.12-.64-.07-.25-.16-.47-.27-.66-.11-.19-.25-.35-.4-.48-.12-.09-.26-.16-.41-.21-.15-.05-.32-.08-.51-.08s-.34.02-.48.07c-.14.05-.27.11-.39.2-.16.13-.29.29-.39.48-.11.19-.19.42-.25.67-.05.2-.08.41-.1.64-.02.23-.03.48-.03.73v1.46c0,.24,0,.47.03.7s.05.43.1.62c.05.24.12.46.22.66.1.2.21.36.35.48.12.11.26.19.42.25.16.06.34.09.54.09s.37-.03.53-.08.3-.13.42-.24c.16-.13.29-.29.39-.48.11-.19.19-.41.26-.66.05-.19.09-.4.11-.63.02-.23.04-.46.04-.71v-1.46c0-.25-.01-.5-.04-.73Z"/><path class="cls-24" d="M595.89,153.04l-2.77-6.42v6.42h-1.93v-9.95h1.93l2.75,6.39v-6.39h1.93v9.95h-1.91Z"/><path class="cls-24" d="M601.68,148.67v2.81h4.78v1.55h-6.71v-9.95h6.69v1.57h-4.76v2.51h4.09v1.52h-4.09Z"/><path class="cls-24" d="M608.01,143.08h2.58c.46,0,.89.06,1.29.17.4.11.77.27,1.09.47.29.17.54.38.77.62.23.24.42.51.59.8.2.35.35.74.46,1.16.11.42.16.88.16,1.35v.82c0,.46-.05.9-.15,1.31s-.24.79-.42,1.13c-.17.31-.38.59-.61.84-.23.26-.49.47-.77.65-.32.21-.68.36-1.07.47-.39.11-.81.16-1.25.16h-2.67v-9.95ZM609.94,151.49h.74c.24,0,.46-.03.66-.09s.39-.15.56-.26c.17-.12.33-.27.47-.45.14-.19.26-.4.36-.65.08-.21.14-.45.19-.71.04-.26.07-.54.07-.85v-.83c0-.29-.02-.56-.07-.82-.04-.26-.11-.49-.19-.71-.1-.25-.23-.48-.39-.68-.16-.2-.35-.36-.56-.49-.16-.1-.35-.17-.54-.22-.2-.05-.41-.08-.65-.08h-.64v6.85Z"/><path class="cls-24" d="M624.81,143.08h2.58c.46,0,.89.06,1.29.17.4.11.77.27,1.09.47.29.17.54.38.77.62.23.24.42.51.59.8.2.35.35.74.46,1.16.11.42.16.88.16,1.35v.82c0,.46-.05.9-.15,1.31s-.24.79-.42,1.13c-.17.31-.38.59-.61.84-.23.26-.49.47-.77.65-.32.21-.68.36-1.07.47-.39.11-.81.16-1.25.16h-2.67v-9.95ZM626.74,151.49h.74c.24,0,.46-.03.66-.09s.39-.15.56-.26c.17-.12.33-.27.47-.45.14-.19.26-.4.36-.65.08-.21.14-.45.19-.71.04-.26.07-.54.07-.85v-.83c0-.29-.02-.56-.07-.82-.04-.26-.11-.49-.19-.71-.1-.25-.23-.48-.39-.68-.16-.2-.35-.36-.56-.49-.16-.1-.35-.17-.54-.22-.2-.05-.41-.08-.65-.08h-.64v6.85Z"/><path class="cls-24" d="M635.16,150.96l-.59,2.08h-2.02l3.26-9.95h1.74l3.2,9.95h-2.02l-.58-2.08h-2.99ZM637.7,149.32l-1.02-3.66-1.05,3.66h2.06Z"/><path class="cls-24" d="M645.9,144.65v8.39h-1.93v-8.39h-3.03v-1.57h8.03v1.57h-3.07Z"/><path class="cls-24" d="M651.96,150.96l-.59,2.08h-2.02l3.26-9.95h1.74l3.2,9.95h-2.02l-.58-2.08h-2.99ZM654.5,149.32l-1.02-3.66-1.05,3.66h2.06Z"/><path class="cls-10" d="M506.5,83.46c-.12,0-.21-.04-.29-.11-.07-.07-.11-.17-.11-.29v-10.4c0-.12.04-.21.11-.29s.17-.11.29-.11h4.37c.86,0,1.61.13,2.25.4s1.13.67,1.49,1.21c.36.54.54,1.21.54,2.01s-.18,1.48-.54,2.01c-.36.53-.85.92-1.49,1.18-.63.26-1.38.38-2.25.38h-2.14v3.62c0,.12-.04.21-.11.29s-.17.11-.29.11h-1.82ZM508.68,77.46h2.11c.54,0,.97-.13,1.27-.4.3-.27.46-.67.46-1.2,0-.47-.14-.85-.41-1.15-.27-.3-.71-.45-1.32-.45h-2.11v3.2Z"/><path class="cls-10" d="M521.22,83.62c-.97,0-1.81-.16-2.51-.48-.7-.32-1.25-.8-1.65-1.45s-.61-1.46-.64-2.44c-.01-.46-.02-.91-.02-1.37s0-.91.02-1.38c.03-.96.25-1.77.65-2.42.4-.66.95-1.15,1.66-1.48.71-.33,1.54-.5,2.49-.5s1.76.17,2.47.5c.71.33,1.27.82,1.67,1.48.41.66.62,1.46.64,2.42.02.47.03.93.03,1.38s-.01.91-.03,1.37c-.03.98-.25,1.79-.64,2.44-.4.65-.94,1.13-1.65,1.45-.7.32-1.54.48-2.5.48ZM521.22,81.56c.62,0,1.13-.19,1.53-.57.4-.38.61-.98.63-1.82.02-.47.03-.91.03-1.32s-.01-.84-.03-1.3c-.01-.55-.11-1.01-.3-1.36-.19-.35-.45-.61-.76-.78-.31-.17-.68-.25-1.1-.25s-.78.08-1.1.25c-.32.17-.57.42-.76.78-.19.35-.29.81-.31,1.36-.01.46-.02.89-.02,1.3s0,.85.02,1.32c.03.83.25,1.44.64,1.82s.91.57,1.54.57Z"/><path class="cls-10" d="M529.72,83.46c-.17,0-.31-.05-.41-.14-.1-.1-.16-.21-.18-.35l-1.82-10.26s-.02-.04-.02-.06v-.05c0-.08.03-.16.1-.23.06-.07.14-.1.24-.1h1.68c.28,0,.43.11.46.34l1.2,6.77,1.3-4.21c.03-.09.09-.18.16-.27s.2-.14.37-.14h1.01c.17,0,.29.05.37.14.07.1.12.19.14.27l1.31,4.19,1.18-6.75c.03-.22.19-.34.48-.34h1.68c.1,0,.18.04.24.1.06.07.1.15.1.23v.05s0,.04-.02.06l-1.82,10.26c-.02.14-.08.26-.18.35-.1.1-.24.14-.41.14h-1.3c-.17,0-.3-.04-.39-.14s-.15-.18-.18-.28l-1.71-4.96-1.7,4.96c-.03.1-.09.19-.18.28-.09.09-.23.14-.41.14h-1.28Z"/><path class="cls-10" d="M541.46,83.46c-.12,0-.21-.04-.29-.11-.07-.07-.11-.17-.11-.29v-10.4c0-.12.04-.21.11-.29s.17-.11.29-.11h7.25c.12,0,.21.04.29.11.07.07.11.17.11.29v1.28c0,.11-.04.2-.11.27s-.17.11-.29.11h-5.18v2.51h4.83c.12,0,.21.04.29.11.08.07.11.17.11.29v1.18c0,.11-.04.2-.11.27s-.17.11-.29.11h-4.83v2.59h5.31c.12,0,.21.04.29.11.07.08.11.17.11.29v1.26c0,.12-.04.21-.11.29s-.17.11-.29.11h-7.38Z"/><path class="cls-10" d="M551.54,83.46c-.12,0-.21-.04-.29-.11-.07-.07-.11-.17-.11-.29v-10.4c0-.12.04-.21.11-.29s.17-.11.29-.11h4.24c1.33,0,2.38.31,3.15.92.77.61,1.15,1.5,1.15,2.65,0,.78-.19,1.43-.56,1.95-.37.52-.88.91-1.5,1.17l2.26,4c.03.06.05.12.05.18,0,.08-.03.16-.1.23-.06.07-.14.1-.24.1h-1.78c-.19,0-.34-.05-.43-.15-.1-.1-.17-.19-.21-.28l-1.95-3.66h-1.94v3.7c0,.12-.04.21-.11.29s-.17.11-.29.11h-1.74ZM553.69,77.33h2.05c.59,0,1.02-.13,1.3-.4.28-.27.42-.64.42-1.12s-.14-.86-.42-1.14-.71-.42-1.31-.42h-2.05v3.07Z"/><path class="cls-10" d="M566.09,83.62c-1.02,0-1.88-.15-2.57-.45-.69-.3-1.21-.69-1.56-1.17-.35-.48-.54-.99-.56-1.54,0-.08.03-.16.1-.23s.14-.1.24-.1h1.71c.14,0,.25.03.32.09.07.06.14.13.21.22.08.18.2.36.36.53.17.17.39.31.68.42.29.11.65.17,1.07.17.69,0,1.21-.11,1.56-.34.35-.22.52-.53.52-.91,0-.28-.09-.5-.28-.67-.19-.17-.48-.33-.88-.46-.4-.14-.93-.29-1.59-.45-.8-.17-1.48-.39-2.04-.66-.56-.27-.98-.62-1.26-1.06-.28-.43-.42-.97-.42-1.61s.18-1.21.53-1.7c.35-.5.85-.89,1.49-1.17.64-.28,1.4-.42,2.29-.42.71,0,1.35.1,1.9.29.55.19,1.01.44,1.38.75.37.31.65.64.84.99.19.35.29.69.3,1.02,0,.08-.03.16-.1.23-.06.07-.14.1-.24.1h-1.79c-.11,0-.2-.02-.29-.06-.09-.04-.16-.12-.21-.22-.06-.28-.25-.52-.57-.73s-.72-.31-1.22-.31-.94.1-1.24.29c-.3.19-.46.49-.46.88,0,.26.08.47.23.65.15.18.42.33.78.46.37.13.86.28,1.46.44.94.19,1.7.42,2.29.69.59.27,1.02.61,1.3,1.03.28.42.42.95.42,1.59,0,.71-.2,1.33-.6,1.84-.4.51-.95.9-1.65,1.18-.7.27-1.51.41-2.44.41Z"/><path class="cls-10" d="M575.35,83.46c-.12,0-.21-.04-.29-.11-.08-.07-.11-.17-.11-.29v-3.52l-3.74-6.77s-.02-.06-.03-.09c-.01-.03-.02-.06-.02-.09,0-.08.04-.16.1-.23s.15-.1.23-.1h1.7c.15,0,.27.04.35.11.08.07.14.14.18.21l2.51,4.4,2.51-4.4c.03-.06.09-.13.18-.21.08-.07.2-.11.35-.11h1.7c.08,0,.16.04.23.1s.1.15.1.23c0,.03,0,.06-.02.09-.01.03-.02.06-.03.09l-3.74,6.77v3.52c0,.12-.04.21-.11.29-.07.08-.17.11-.29.11h-1.76Z"/><path class="cls-10" d="M583.19,83.46c-.12,0-.21-.04-.29-.11-.07-.07-.11-.17-.11-.29v-10.4c0-.12.04-.21.11-.29s.17-.11.29-.11h1.46c.16,0,.28.04.35.11.08.07.12.13.14.18l4.27,6.67v-6.56c0-.12.04-.21.11-.29s.17-.11.27-.11h1.63c.12,0,.21.04.29.11.07.07.11.17.11.29v10.4c0,.11-.04.2-.11.28-.08.08-.17.12-.29.12h-1.47c-.16,0-.27-.04-.34-.12s-.12-.14-.15-.17l-4.26-6.46v6.35c0,.12-.04.21-.11.29s-.17.11-.29.11h-1.62Z"/><path class="cls-10" d="M598.65,83.62c-1,0-1.85-.17-2.55-.5-.7-.34-1.24-.83-1.62-1.47-.38-.64-.6-1.43-.64-2.36-.01-.44-.02-.91-.02-1.41s0-.98.02-1.44c.04-.92.26-1.7.65-2.34s.94-1.14,1.64-1.48c.7-.34,1.55-.51,2.53-.51.71,0,1.37.09,1.95.27s1.09.44,1.52.78c.43.34.76.74.99,1.2.23.46.36.97.38,1.54,0,.1-.04.18-.1.24-.07.06-.15.1-.25.1h-1.82c-.13,0-.23-.03-.3-.1-.08-.06-.13-.17-.18-.32-.16-.63-.43-1.06-.8-1.3-.37-.23-.84-.35-1.39-.35-.66,0-1.18.18-1.57.54-.38.36-.59.97-.62,1.81-.03.88-.03,1.77,0,2.69.03.84.24,1.45.62,1.81.38.36.91.54,1.57.54.55,0,1.02-.12,1.4-.36.38-.24.64-.67.79-1.29.04-.16.1-.27.18-.33.07-.06.18-.09.3-.09h1.82c.1,0,.18.03.25.1.07.06.1.14.1.24-.02.57-.15,1.08-.38,1.54-.23.46-.57.86-.99,1.2-.43.34-.93.6-1.52.78-.59.18-1.24.27-1.95.27Z"/><path class="cls-10" d="M612.85,83.62c-1.02,0-1.88-.15-2.57-.45-.69-.3-1.21-.69-1.56-1.17-.35-.48-.54-.99-.56-1.54,0-.08.03-.16.1-.23s.14-.1.24-.1h1.71c.14,0,.25.03.32.09.07.06.14.13.21.22.08.18.2.36.36.53.17.17.39.31.68.42.29.11.65.17,1.07.17.69,0,1.21-.11,1.56-.34.35-.22.52-.53.52-.91,0-.28-.09-.5-.28-.67-.19-.17-.48-.33-.88-.46-.4-.14-.93-.29-1.59-.45-.8-.17-1.48-.39-2.04-.66-.56-.27-.98-.62-1.26-1.06-.28-.43-.42-.97-.42-1.61s.18-1.21.53-1.7c.35-.5.85-.89,1.49-1.17.64-.28,1.4-.42,2.29-.42.71,0,1.35.1,1.9.29.55.19,1.01.44,1.38.75.37.31.65.64.84.99.19.35.29.69.3,1.02,0,.08-.03.16-.1.23-.06.07-.14.1-.24.1h-1.79c-.11,0-.2-.02-.29-.06-.09-.04-.16-.12-.21-.22-.06-.28-.25-.52-.57-.73s-.72-.31-1.22-.31-.94.1-1.24.29c-.3.19-.46.49-.46.88,0,.26.08.47.23.65.15.18.42.33.78.46.37.13.86.28,1.46.44.94.19,1.7.42,2.29.69.59.27,1.02.61,1.3,1.03.28.42.42.95.42,1.59,0,.71-.2,1.33-.6,1.84-.4.51-.95.9-1.65,1.18-.7.27-1.51.41-2.44.41Z"/><path class="cls-10" d="M619.65,83.46c-.12,0-.21-.04-.29-.11-.07-.07-.11-.17-.11-.29v-10.4c0-.12.04-.21.11-.29s.17-.11.29-.11h7.25c.12,0,.21.04.29.11.07.07.11.17.11.29v1.28c0,.11-.04.2-.11.27s-.17.11-.29.11h-5.18v2.51h4.83c.12,0,.21.04.29.11.08.07.11.17.11.29v1.18c0,.11-.04.2-.11.27s-.17.11-.29.11h-4.83v2.59h5.31c.12,0,.21.04.29.11.07.08.11.17.11.29v1.26c0,.12-.04.21-.11.29s-.17.11-.29.11h-7.38Z"/><path class="cls-10" d="M629.73,83.46c-.12,0-.21-.04-.29-.11-.07-.07-.11-.17-.11-.29v-10.4c0-.12.04-.21.11-.29s.17-.11.29-.11h4.24c1.33,0,2.38.31,3.15.92.77.61,1.15,1.5,1.15,2.65,0,.78-.19,1.43-.56,1.95-.37.52-.88.91-1.5,1.17l2.26,4c.03.06.05.12.05.18,0,.08-.03.16-.1.23-.06.07-.14.1-.24.1h-1.78c-.19,0-.34-.05-.43-.15-.1-.1-.17-.19-.21-.28l-1.95-3.66h-1.94v3.7c0,.12-.04.21-.11.29s-.17.11-.29.11h-1.74ZM631.88,77.33h2.05c.59,0,1.02-.13,1.3-.4.28-.27.42-.64.42-1.12s-.14-.86-.42-1.14-.71-.42-1.31-.42h-2.05v3.07Z"/><path class="cls-10" d="M643.13,83.46c-.17,0-.31-.04-.41-.14s-.17-.2-.22-.33l-3.36-10.26c-.01-.05-.02-.1-.02-.14,0-.08.03-.16.1-.23.06-.07.14-.1.24-.1h1.68c.16,0,.29.05.38.14.09.09.15.17.17.25l2.5,7.82,2.48-7.82c.03-.07.09-.16.18-.25.08-.09.21-.14.37-.14h1.68c.1,0,.18.04.24.1s.1.15.1.23c0,.04,0,.09-.02.14l-3.36,10.26c-.03.13-.1.24-.2.33-.1.09-.24.14-.42.14h-2.1Z"/><path class="cls-10" d="M651.22,83.46c-.12,0-.21-.04-.29-.11-.07-.07-.11-.17-.11-.29v-10.4c0-.12.04-.21.11-.29s.17-.11.29-.11h1.81c.12,0,.21.04.29.11.08.07.11.17.11.29v10.4c0,.12-.04.21-.11.29-.07.08-.17.11-.29.11h-1.81Z"/><path class="cls-10" d="M660.25,83.62c-1,0-1.85-.17-2.55-.5-.7-.34-1.24-.83-1.62-1.47-.38-.64-.6-1.43-.64-2.36-.01-.44-.02-.91-.02-1.41s0-.98.02-1.44c.04-.92.26-1.7.65-2.34s.94-1.14,1.64-1.48c.7-.34,1.55-.51,2.53-.51.71,0,1.37.09,1.95.27s1.09.44,1.52.78c.43.34.76.74.99,1.2.23.46.36.97.38,1.54,0,.1-.04.18-.1.24-.07.06-.15.1-.25.1h-1.82c-.13,0-.23-.03-.3-.1-.08-.06-.13-.17-.18-.32-.16-.63-.43-1.06-.8-1.3-.37-.23-.84-.35-1.39-.35-.66,0-1.18.18-1.57.54-.38.36-.59.97-.62,1.81-.03.88-.03,1.77,0,2.69.03.84.24,1.45.62,1.81.38.36.91.54,1.57.54.55,0,1.02-.12,1.4-.36.38-.24.64-.67.79-1.29.04-.16.1-.27.18-.33.07-.06.18-.09.3-.09h1.82c.1,0,.18.03.25.1.07.06.1.14.1.24-.02.57-.15,1.08-.38,1.54-.23.46-.57.86-.99,1.2-.43.34-.93.6-1.52.78-.59.18-1.24.27-1.95.27Z"/><path class="cls-10" d="M667.29,83.46c-.12,0-.21-.04-.29-.11-.07-.07-.11-.17-.11-.29v-10.4c0-.12.04-.21.11-.29s.17-.11.29-.11h7.25c.12,0,.21.04.29.11.07.07.11.17.11.29v1.28c0,.11-.04.2-.11.27s-.17.11-.29.11h-5.18v2.51h4.83c.12,0,.21.04.29.11.08.07.11.17.11.29v1.18c0,.11-.04.2-.11.27s-.17.11-.29.11h-4.83v2.59h5.31c.12,0,.21.04.29.11.07.08.11.17.11.29v1.26c0,.12-.04.21-.11.29s-.17.11-.29.11h-7.38Z"/><path class="cls-25" d="M596.75,178.87s0,0,0,0c0-.02,0-.04,0-.05,0-.01,0-.02,0-.03,0,0,0-.01,0-.02-.09-1.93-5.26-3.49-11.63-3.49s-11.44,1.53-11.63,3.44c-.01.05-.02.11,0,.17l2.24,18.03c.05,2.08,4.75,3.17,9.4,3.17s9.35-1.09,9.4-3.17l2.21-17.87s.02-.1.02-.15h0ZM577.17,177.24c2.11-.64,4.93-.99,7.94-.99s5.83.35,7.94.99c2.01.61,2.68,1.3,2.71,1.55v.08c-.1.28-.81.93-2.71,1.51-2.11.64-4.93.99-7.94.99s-5.83-.35-7.94-.99c-2.05-.62-2.71-1.33-2.71-1.57s.66-.94,2.71-1.57ZM593.54,196.81s0,.04,0,.06c0,.91-3.28,2.22-8.42,2.22s-8.42-1.32-8.42-2.22c0-.02,0-.04,0-.06l-2.04-16.45c1.89,1.18,5.86,1.99,10.46,1.99s8.57-.81,10.46-1.99l-2.04,16.45Z"/><path class="cls-25" d="M552.53,178.87s0,0,0,0c0-.02,0-.04,0-.05,0-.01,0-.02,0-.03,0,0,0-.01,0-.02-.09-1.93-5.26-3.49-11.63-3.49s-11.44,1.53-11.63,3.44c-.01.05-.02.11,0,.17l2.24,18.03c.05,2.08,4.75,3.17,9.4,3.17s9.35-1.09,9.4-3.17l2.21-17.88s.02-.1.02-.15h0ZM532.96,177.24c2.11-.64,4.93-.99,7.94-.99s5.83.35,7.94.99c2.01.61,2.68,1.3,2.71,1.55v.08c-.1.28-.81.93-2.71,1.51-2.11.64-4.93.99-7.94.99s-5.83-.35-7.94-.99c-2.05-.62-2.71-1.33-2.71-1.57s.66-.94,2.71-1.57ZM549.32,196.81s0,.04,0,.06c0,.91-3.28,2.22-8.42,2.22s-8.42-1.32-8.42-2.22c0-.02,0-.04,0-.06l-2.04-16.45c1.89,1.18,5.86,1.99,10.46,1.99s8.57-.81,10.46-1.99l-2.04,16.45Z"/><path class="cls-25" d="M552.53,224.61s0,0,0,0c0-.02,0-.04,0-.05,0-.01,0-.02,0-.03,0,0,0-.01,0-.02-.09-1.93-5.26-3.49-11.63-3.49s-11.44,1.53-11.63,3.44c-.01.05-.02.11,0,.17l2.24,18.03c.05,2.08,4.75,3.17,9.4,3.17s9.35-1.09,9.4-3.17l2.21-17.88s.02-.1.02-.15h0ZM532.96,222.99c2.11-.64,4.93-.99,7.94-.99s5.83.35,7.94.99c2.01.61,2.68,1.3,2.71,1.55v.08c-.1.28-.81.93-2.71,1.51-2.11.64-4.93.99-7.94.99s-5.83-.35-7.94-.99c-2.05-.62-2.71-1.33-2.71-1.57s.66-.94,2.71-1.57ZM549.32,242.55s0,.04,0,.06c0,.91-3.28,2.22-8.42,2.22s-8.42-1.32-8.42-2.22c0-.02,0-.04,0-.06l-2.04-16.45c1.89,1.18,5.86,1.99,10.46,1.99s8.57-.81,10.46-1.99l-2.04,16.45Z"/><path class="cls-7" d="M647.44,164.53h-35.89c-2.21,0-4,1.79-4,4v37.88c0,2.21-1.79,4-4,4h-36.54c-2.21,0-4,1.79-4,4v37.88c0,2.21,1.79,4,4,4h80.43c2.21,0,4-1.79,4-4v-83.75c0-2.21-1.79-4-4-4Z"/><path class="cls-31" d="M647.44,164.53h-35.89c-2.21,0-4,1.79-4,4v37.88c0,2.21-1.79,4-4,4h-36.54c-2.21,0-4,1.79-4,4v37.88c0,2.21,1.79,4,4,4h80.43c2.21,0,4-1.79,4-4v-83.75c0-2.21-1.79-4-4-4Z"/><path class="cls-12" d="M640.96,178.87s0,0,0,0c0-.02,0-.04,0-.05,0-.01,0-.02,0-.03,0,0,0-.01,0-.02-.09-1.93-5.26-3.49-11.63-3.49s-11.44,1.53-11.63,3.44c-.01.05-.02.11,0,.17l2.24,18.03c.05,2.08,4.75,3.17,9.4,3.17s9.35-1.09,9.4-3.17l2.21-17.87s.02-.1.02-.15h0ZM621.39,177.24c2.11-.64,4.93-.99,7.94-.99s5.83.35,7.94.99c2.01.61,2.68,1.3,2.71,1.55v.08c-.1.28-.81.93-2.71,1.51-2.11.64-4.93.99-7.94.99s-5.83-.35-7.94-.99c-2.05-.62-2.71-1.33-2.71-1.57s.66-.94,2.71-1.57ZM637.76,196.81s0,.04,0,.06c0,.91-3.28,2.22-8.42,2.22s-8.42-1.32-8.42-2.22c0-.02,0-.04,0-.06l-2.04-16.45c1.89,1.18,5.86,1.99,10.46,1.99s8.57-.81,10.46-1.99l-2.04,16.45Z"/><path class="cls-12" d="M640.96,224.61s0,0,0,0c0-.02,0-.04,0-.05,0-.01,0-.02,0-.03,0,0,0-.01,0-.02-.09-1.93-5.26-3.49-11.63-3.49s-11.44,1.53-11.63,3.44c-.01.05-.02.11,0,.17l2.24,18.03c.05,2.08,4.75,3.17,9.4,3.17s9.35-1.09,9.4-3.17l2.21-17.87s.02-.1.02-.15h0ZM621.39,222.99c2.11-.64,4.93-.99,7.94-.99s5.83.35,7.94.99c2.01.61,2.68,1.3,2.71,1.55v.08c-.1.28-.81.93-2.71,1.51-2.11.64-4.93.99-7.94.99s-5.83-.35-7.94-.99c-2.05-.62-2.71-1.33-2.71-1.57s.66-.94,2.71-1.57ZM637.76,242.55s0,.04,0,.06c0,.91-3.28,2.22-8.42,2.22s-8.42-1.32-8.42-2.22c0-.02,0-.04,0-.06l-2.04-16.45c1.89,1.18,5.86,1.99,10.46,1.99s8.57-.81,10.46-1.99l-2.04,16.45Z"/><path class="cls-12" d="M596.75,224.61s0,0,0,0c0-.02,0-.04,0-.05,0-.01,0-.02,0-.03,0,0,0-.01,0-.02-.09-1.93-5.26-3.49-11.63-3.49s-11.44,1.53-11.63,3.44c-.01.05-.02.11,0,.17l2.24,18.03c.05,2.08,4.75,3.17,9.4,3.17s9.35-1.09,9.4-3.17l2.21-17.87s.02-.1.02-.15h0ZM577.18,222.99c2.11-.64,4.93-.99,7.94-.99s5.83.35,7.94.99c2.01.61,2.68,1.3,2.71,1.55v.08c-.1.28-.81.93-2.71,1.51-2.11.64-4.93.99-7.94.99s-5.83-.35-7.94-.99c-2.05-.62-2.71-1.33-2.71-1.57s.66-.94,2.71-1.57ZM593.54,242.55s0,.04,0,.06c0,.91-3.28,2.22-8.42,2.22s-8.42-1.32-8.42-2.22c0-.02,0-.04,0-.06l-2.04-16.45c1.89,1.18,5.86,1.99,10.46,1.99s8.57-.81,10.46-1.99l-2.04,16.45Z"/><rect class="cls-13" x=".5" y=".5" width="431.86" height="410.97" rx="7.5" ry="7.5"/><path class="cls-7" d="M424.85,1c3.86,0,7,3.14,7,7v395.97c0,3.86-3.14,7-7,7H8c-3.86,0-7-3.14-7-7V8C1,4.14,4.14,1,8,1h416.85M424.85,0H8C3.58,0,0,3.58,0,8v395.97c0,4.42,3.58,8,8,8h416.85c4.42,0,8-3.58,8-8V8C432.85,3.58,429.27,0,424.85,0h0Z"/><path class="cls-3" d="M.5,41.39V8C.5,3.86,3.86.5,8,.5h145.09v33.39c0,4.14-3.36,7.5-7.5,7.5H.5Z"/><path class="cls-8" d="M152.6,1v32.89c0,3.86-3.14,7-7,7H1V8C1,4.14,4.14,1,8,1h144.6M153.6,0H8C3.58,0,0,3.58,0,8v33.89h145.6c4.42,0,8-3.58,8-8V0h0Z"/><path class="cls-24" d="M26.62,25.05c-.1,0-.19-.03-.25-.1s-.1-.15-.1-.25v-3.08l-3.28-5.92s-.02-.05-.03-.08c0-.02-.01-.05-.01-.08,0-.08.03-.14.09-.2.06-.06.13-.09.2-.09h1.48c.13,0,.23.03.31.1.08.07.13.13.15.18l2.2,3.85,2.2-3.85c.03-.06.08-.12.15-.18.08-.07.18-.1.31-.1h1.48c.08,0,.14.03.2.09s.09.13.09.2c0,.03,0,.05-.01.08,0,.02-.02.05-.03.08l-3.28,5.92v3.08c0,.1-.03.19-.1.25s-.15.1-.25.1h-1.54Z"/><path class="cls-24" d="M36.57,25.19c-.85,0-1.58-.14-2.2-.42-.62-.28-1.1-.7-1.44-1.27-.35-.56-.53-1.28-.56-2.13,0-.4-.01-.8-.01-1.2s0-.8.01-1.21c.03-.84.22-1.55.57-2.12s.83-1.01,1.46-1.29,1.35-.43,2.18-.43,1.54.15,2.16.43,1.11.72,1.46,1.29.54,1.28.56,2.12c.02.41.03.81.03,1.21s0,.8-.03,1.2c-.03.86-.21,1.57-.56,2.13-.34.56-.83.99-1.44,1.27-.62.28-1.34.42-2.18.42ZM36.57,23.38c.54,0,.99-.17,1.34-.5.35-.33.53-.86.55-1.59.02-.41.03-.8.03-1.16s0-.74-.03-1.14c0-.49-.1-.88-.27-1.19-.17-.31-.39-.53-.67-.68s-.59-.22-.96-.22-.69.07-.97.22-.5.37-.67.68c-.16.31-.25.71-.27,1.19,0,.4-.01.78-.01,1.14s0,.75.01,1.16c.03.73.21,1.26.56,1.59.34.33.79.5,1.34.5Z"/><path class="cls-24" d="M46.52,25.19c-.82,0-1.54-.14-2.16-.41-.62-.27-1.09-.7-1.43-1.27s-.5-1.3-.5-2.19v-5.71c0-.1.03-.19.1-.25s.15-.1.25-.1h1.53c.1,0,.19.03.25.1s.1.15.1.25v5.7c0,.69.16,1.2.49,1.54.33.34.78.5,1.37.5s1.03-.17,1.36-.5c.33-.34.49-.85.49-1.54v-5.7c0-.1.04-.19.11-.25s.15-.1.25-.1h1.54c.09,0,.17.03.24.1s.1.15.1.25v5.71c0,.89-.17,1.62-.5,2.19s-.81,1-1.41,1.27c-.61.28-1.33.41-2.16.41Z"/><path class="cls-24" d="M52.94,25.05c-.1,0-.19-.03-.25-.1s-.1-.15-.1-.25v-9.1c0-.1.03-.19.1-.25s.15-.1.25-.1h3.71c1.17,0,2.09.27,2.76.8.67.54,1.01,1.31,1.01,2.32,0,.68-.16,1.25-.49,1.71-.33.46-.77.8-1.32,1.02l1.97,3.5c.03.06.04.11.04.15,0,.08-.03.14-.08.2-.06.06-.13.09-.21.09h-1.55c-.17,0-.29-.04-.38-.13s-.14-.17-.18-.25l-1.71-3.21h-1.69v3.23c0,.1-.03.19-.1.25s-.15.1-.25.1h-1.53ZM54.81,19.68h1.79c.51,0,.89-.12,1.14-.35.25-.23.37-.56.37-.98s-.12-.75-.36-.99-.63-.36-1.15-.36h-1.79v2.69Z"/><path class="cls-24" d="M65.58,25.05c-.1,0-.19-.03-.25-.1s-.1-.15-.1-.25v-9.1c0-.1.03-.19.1-.25s.15-.1.25-.1h4.16c.77,0,1.41.11,1.9.34.49.22.86.54,1.1.95.24.41.36.89.36,1.44,0,.35-.06.65-.19.91-.13.26-.28.48-.46.64s-.36.29-.53.38c.36.17.68.45.96.83.28.39.41.85.41,1.38,0,.59-.13,1.1-.39,1.54-.26.44-.65.78-1.16,1.02-.51.24-1.14.36-1.88.36h-4.28ZM67.45,19.21h2.02c.44,0,.77-.11.99-.33.22-.22.33-.5.33-.85s-.11-.62-.33-.83c-.22-.21-.55-.32-.99-.32h-2.02v2.32ZM67.45,23.41h2.14c.46,0,.8-.13,1.04-.39.23-.26.35-.56.35-.92s-.12-.67-.36-.92c-.24-.25-.58-.37-1.03-.37h-2.14v2.59Z"/><path class="cls-24" d="M74.24,25.05c-.08,0-.15-.03-.21-.09s-.08-.13-.08-.2c0-.05,0-.09.01-.13l3.33-9c.03-.1.08-.19.17-.27.08-.07.2-.11.35-.11h1.79c.15,0,.27.04.35.11.08.08.14.16.17.27l3.33,9s.01.08.01.13c0,.08-.03.14-.08.2-.06.06-.13.09-.21.09h-1.46c-.14,0-.24-.03-.31-.1s-.11-.13-.13-.18l-.6-1.57h-3.95l-.6,1.57c-.02.06-.06.12-.13.18s-.17.1-.31.1h-1.46ZM77.25,21.39h2.9l-1.44-4.03-1.46,4.03Z"/><path class="cls-24" d="M88.36,25.19c-.88,0-1.62-.15-2.23-.44s-1.08-.72-1.42-1.29-.52-1.25-.56-2.07c0-.38-.01-.79-.01-1.23s0-.86.01-1.26c.04-.8.23-1.49.57-2.05.34-.56.82-1,1.43-1.29s1.35-.45,2.21-.45c.62,0,1.2.08,1.71.24.51.16.96.39,1.33.69s.66.65.87,1.05.32.85.34,1.34c0,.08-.03.15-.09.21s-.13.08-.22.08h-1.6c-.11,0-.2-.03-.27-.08s-.12-.15-.15-.28c-.14-.55-.37-.93-.7-1.13-.33-.21-.73-.31-1.22-.31-.58,0-1.04.16-1.37.48s-.52.84-.55,1.58c-.03.77-.03,1.55,0,2.35.03.74.21,1.26.55,1.58s.79.48,1.37.48c.49,0,.89-.11,1.23-.32.33-.21.56-.58.69-1.13.04-.14.09-.24.15-.29.07-.05.15-.08.27-.08h1.6c.08,0,.16.03.22.08.06.06.09.13.09.21-.02.49-.13.94-.34,1.34s-.5.75-.87,1.05-.82.53-1.33.69c-.51.16-1.08.24-1.71.24Z"/><path class="cls-24" d="M94.52,25.05c-.1,0-.19-.03-.25-.1s-.1-.15-.1-.25v-9.1c0-.1.03-.19.1-.25s.15-.1.25-.1h1.48c.1,0,.19.03.25.1s.1.15.1.25v3.19l2.88-3.28c.04-.06.1-.11.19-.17s.21-.09.36-.09h1.69c.08,0,.15.03.21.09.06.06.08.13.08.2,0,.07-.02.12-.06.17l-3.6,4.23,3.86,4.65s.06.09.06.17-.03.14-.08.2c-.06.06-.13.09-.21.09h-1.75c-.17,0-.29-.04-.38-.11-.08-.07-.14-.13-.17-.15l-3.09-3.58v3.5c0,.1-.03.19-.1.25s-.15.1-.25.1h-1.48Z"/><path class="cls-24" d="M103.57,25.05c-.1,0-.19-.03-.25-.1s-.1-.15-.1-.25v-9.1c0-.1.03-.19.1-.25s.15-.1.25-.1h6.34c.1,0,.19.03.25.1.06.07.1.15.1.25v1.12c0,.09-.03.17-.1.24-.07.07-.15.1-.25.1h-4.54v2.2h4.23c.1,0,.19.03.25.1s.1.15.1.25v1.04c0,.09-.03.17-.1.24s-.15.1-.25.1h-4.23v2.27h4.65c.1,0,.19.03.25.1s.1.15.1.25v1.11c0,.1-.03.19-.1.25s-.15.1-.25.1h-6.45Z"/><path class="cls-24" d="M112.39,25.05c-.1,0-.19-.03-.25-.1s-.1-.15-.1-.25v-9.1c0-.1.03-.19.1-.25s.15-.1.25-.1h1.27c.14,0,.24.03.31.1s.11.12.13.15l3.74,5.84v-5.74c0-.1.03-.19.1-.25s.14-.1.24-.1h1.43c.1,0,.19.03.25.1s.1.15.1.25v9.1c0,.09-.03.17-.1.24-.07.07-.15.11-.25.11h-1.29c-.14,0-.24-.04-.3-.11-.06-.07-.1-.12-.13-.15l-3.72-5.66v5.56c0,.1-.03.19-.1.25s-.15.1-.25.1h-1.41Z"/><path class="cls-24" d="M122.37,25.05c-.1,0-.19-.03-.25-.1s-.1-.15-.1-.25v-9.1c0-.1.03-.19.1-.25s.15-.1.25-.1h3.51c.93,0,1.71.15,2.34.44.62.29,1.1.72,1.43,1.29.33.57.51,1.26.53,2.09,0,.41.01.77.01,1.08s0,.66-.01,1.06c-.03.87-.2,1.59-.52,2.16s-.78.99-1.4,1.27-1.39.41-2.31.41h-3.58ZM124.25,23.24h1.64c.47,0,.85-.07,1.15-.21.3-.14.52-.36.67-.67.14-.3.22-.7.23-1.18,0-.27.02-.51.02-.73s0-.43,0-.64c0-.21-.01-.45-.02-.71-.02-.7-.2-1.22-.54-1.55-.34-.33-.87-.5-1.58-.5h-1.57v6.19Z"/><path class="cls-27" d="M87.37,350.84l-.59,2.08h-2.02l3.26-9.95h1.74l3.2,9.95h-2.02l-.58-2.08h-2.99ZM89.91,349.21l-1.02-3.66-1.05,3.66h2.06Z"/><path class="cls-27" d="M95.91,352.92h-1.92v-9.95h3.4c.54,0,1.03.08,1.47.24.44.16.81.37,1.12.65.31.28.54.62.71,1.01.17.39.25.83.25,1.31,0,.45-.08.86-.25,1.24-.17.38-.4.7-.71.98-.31.28-.68.49-1.12.65s-.93.23-1.47.23h-1.48v3.65ZM97.4,347.71c.27,0,.51-.04.71-.12s.37-.19.51-.33c.13-.14.23-.3.3-.49.07-.18.1-.38.1-.58,0-.23-.03-.45-.1-.65-.07-.2-.17-.38-.3-.53-.14-.15-.31-.27-.51-.36s-.44-.13-.71-.13h-1.48v3.19h1.48Z"/><path class="cls-27" d="M104.31,352.92h-1.92v-9.95h3.4c.54,0,1.03.08,1.47.24.44.16.81.37,1.12.65.31.28.54.62.71,1.01.17.39.25.83.25,1.31,0,.45-.08.86-.25,1.24-.17.38-.4.7-.71.98-.31.28-.68.49-1.12.65s-.93.23-1.47.23h-1.48v3.65ZM105.8,347.71c.27,0,.51-.04.71-.12s.37-.19.51-.33c.13-.14.23-.3.3-.49.07-.18.1-.38.1-.58,0-.23-.03-.45-.1-.65-.07-.2-.17-.38-.3-.53-.14-.15-.31-.27-.51-.36s-.44-.13-.71-.13h-1.48v3.19h1.48Z"/><path class="cls-27" d="M117.39,351.37v1.55h-6.59v-9.95h1.93v8.4h4.66Z"/><path class="cls-27" d="M125.25,342.97v1.55h-1.94v6.86h1.94v1.54h-5.76v-1.54h1.89v-6.86h-1.89v-1.55h5.76Z"/><path class="cls-27" d="M129.51,348.56v2.81h4.78v1.55h-6.71v-9.95h6.69v1.57h-4.76v2.51h4.09v1.52h-4.09Z"/><path class="cls-27" d="M140.95,349.82c-.06-.16-.17-.3-.31-.44-.15-.13-.35-.25-.58-.37-.24-.11-.54-.21-.89-.31-.55-.15-1.04-.33-1.45-.55-.42-.21-.76-.45-1.02-.7s-.46-.54-.6-.85c-.13-.31-.2-.65-.2-1.01,0-.42.09-.8.27-1.14s.42-.63.74-.88.69-.43,1.11-.56c.43-.13.89-.2,1.39-.2s1,.08,1.42.23c.43.15.8.36,1.11.63.31.27.55.6.72.97s.26.78.26,1.23h-1.87c0-.22-.05-.43-.12-.62-.07-.19-.17-.35-.31-.49-.14-.13-.32-.24-.52-.31-.21-.08-.45-.11-.73-.11-.25,0-.48.03-.68.09-.2.06-.37.15-.5.26-.14.11-.24.25-.31.4-.07.15-.11.32-.11.5,0,.19.05.36.14.51.09.15.23.29.41.4.18.12.39.23.65.33.25.1.54.19.86.28.34.1.67.21.98.35s.59.29.85.47c.39.29.7.63.94,1.02s.35.83.35,1.34c0,.44-.09.83-.26,1.17-.17.34-.42.62-.73.86-.31.24-.68.42-1.11.54-.43.12-.9.18-1.4.18s-.99-.07-1.47-.22c-.49-.15-.91-.37-1.27-.65-.34-.28-.61-.62-.81-1-.2-.38-.3-.83-.3-1.35h1.89c0,.3.06.56.16.77s.23.39.4.53c.17.14.37.24.61.3.24.06.5.1.79.1.25,0,.48-.03.68-.09.2-.06.37-.14.5-.25s.24-.23.31-.38c.07-.15.11-.31.11-.49s-.03-.34-.09-.5Z"/><path class="cls-27" d="M151.96,342.97h1.76l.66,5.56.05.39.06-.41.79-5.54h1.37l.83,5.58.06.41.05-.42.68-5.58h1.76l-1.38,9.95h-1.74l-.87-5.37-.08-.51-.08.51-.83,5.37h-1.74l-1.37-9.95Z"/><path class="cls-27" d="M163,349.2v3.72h-1.92v-9.95h3.34c.55,0,1.05.06,1.5.2.45.13.83.32,1.15.57.31.25.56.56.73.94.17.37.26.81.26,1.3,0,.36-.04.68-.13.96-.08.29-.2.54-.36.76-.16.23-.35.43-.57.59-.22.17-.47.31-.74.44l2.14,4.11v.09h-2.06l-1.87-3.72h-1.46ZM164.42,347.64c.3,0,.56-.04.78-.13.22-.08.41-.21.55-.37.12-.13.21-.28.27-.46.06-.18.09-.38.09-.59,0-.26-.04-.5-.12-.7-.08-.2-.2-.37-.36-.5-.14-.12-.31-.21-.52-.27s-.44-.1-.7-.1h-1.42v3.12h1.42Z"/><path class="cls-27" d="M175.66,342.97v1.55h-1.94v6.86h1.94v1.54h-5.76v-1.54h1.89v-6.86h-1.89v-1.55h5.76Z"/><path class="cls-27" d="M182.13,344.53v8.39h-1.93v-8.39h-3.03v-1.57h8.03v1.57h-3.07Z"/><path class="cls-27" d="M188.32,348.56v2.81h4.78v1.55h-6.71v-9.95h6.69v1.57h-4.76v2.51h4.09v1.52h-4.09Z"/><path class="cls-27" d="M199.76,349.82c-.06-.16-.17-.3-.31-.44-.15-.13-.35-.25-.58-.37-.24-.11-.54-.21-.89-.31-.55-.15-1.04-.33-1.45-.55-.42-.21-.76-.45-1.02-.7s-.46-.54-.6-.85c-.13-.31-.2-.65-.2-1.01,0-.42.09-.8.27-1.14s.42-.63.74-.88.69-.43,1.11-.56c.43-.13.89-.2,1.39-.2s1,.08,1.42.23c.43.15.8.36,1.11.63.31.27.55.6.72.97s.26.78.26,1.23h-1.87c0-.22-.05-.43-.12-.62-.07-.19-.17-.35-.31-.49-.14-.13-.32-.24-.52-.31-.21-.08-.45-.11-.73-.11-.25,0-.48.03-.68.09-.2.06-.37.15-.5.26-.14.11-.24.25-.31.4-.07.15-.11.32-.11.5,0,.19.05.36.14.51.09.15.23.29.41.4.18.12.39.23.65.33.25.1.54.19.86.28.34.1.67.21.98.35s.59.29.85.47c.39.29.7.63.94,1.02s.35.83.35,1.34c0,.44-.09.83-.26,1.17-.17.34-.42.62-.73.86-.31.24-.68.42-1.11.54-.43.12-.9.18-1.4.18s-.99-.07-1.47-.22c-.49-.15-.91-.37-1.27-.65-.34-.28-.61-.62-.81-1-.2-.38-.3-.83-.3-1.35h1.89c0,.3.06.56.16.77s.23.39.4.53c.17.14.37.24.61.3.24.06.5.1.79.1.25,0,.48-.03.68-.09.2-.06.37-.14.5-.25s.24-.23.31-.38c.07-.15.11-.31.11-.49s-.03-.34-.09-.5Z"/><path class="cls-27" d="M215.73,344.53v8.39h-1.93v-8.39h-3.03v-1.57h8.03v1.57h-3.07Z"/><path class="cls-27" d="M226.72,349.89c-.08.39-.19.74-.33,1.07-.16.33-.35.63-.57.9s-.49.5-.78.68c-.26.16-.55.28-.87.37-.32.09-.66.13-1.02.13-.39,0-.75-.05-1.07-.15s-.63-.24-.9-.42c-.26-.19-.5-.42-.71-.69-.21-.27-.38-.58-.53-.92-.13-.31-.22-.66-.29-1.03-.07-.37-.1-.76-.1-1.17v-1.45c0-.44.04-.85.11-1.24.07-.39.19-.75.33-1.09.14-.31.31-.6.52-.85.2-.25.44-.47.7-.66.26-.18.55-.31.88-.41s.67-.14,1.05-.14.74.05,1.08.15c.33.1.64.24.91.42.27.17.5.38.71.63.2.25.38.52.52.81.16.34.28.71.37,1.11.08.4.13.83.13,1.28v1.45c0,.43-.04.83-.12,1.22ZM224.85,346.48c-.03-.23-.07-.44-.12-.64-.07-.25-.16-.47-.27-.66-.11-.19-.25-.35-.4-.48-.12-.09-.26-.16-.41-.21-.15-.05-.32-.08-.51-.08s-.34.02-.48.07c-.14.05-.27.11-.39.2-.16.13-.29.29-.39.48-.11.19-.19.42-.25.67-.05.2-.08.41-.1.64-.02.23-.03.48-.03.73v1.46c0,.24,0,.47.03.7s.05.43.1.62c.05.24.12.46.22.66.1.2.21.36.35.48.12.11.26.19.42.25.16.06.34.09.54.09s.37-.03.53-.08.3-.13.42-.24c.16-.13.29-.29.39-.48.11-.19.19-.41.26-.66.05-.19.09-.4.11-.63.02-.23.04-.46.04-.71v-1.46c0-.25-.01-.5-.04-.73Z"/><path class="cls-27" d="M588.79,349.97c-.07.32-.16.63-.29.92-.1.22-.22.44-.36.64-.14.2-.3.39-.47.56l1.65,1.49-1.24,1.1-1.89-1.75c-.16.04-.32.07-.49.1-.17.02-.34.03-.52.03-.4,0-.77-.05-1.11-.16s-.64-.26-.92-.46c-.28-.2-.52-.44-.73-.72-.21-.28-.37-.58-.5-.9-.11-.28-.2-.57-.26-.89-.06-.31-.09-.63-.09-.96v-1.72c0-.38.03-.74.08-1.09.06-.35.14-.67.25-.97.13-.37.3-.7.51-1,.21-.3.47-.55.77-.76.27-.19.57-.34.9-.44s.7-.16,1.09-.16.76.05,1.1.16.65.25.93.44c.31.22.59.5.83.82s.42.69.56,1.09c.1.28.18.58.23.91.05.32.08.66.08,1.01v1.72c0,.34-.04.67-.11,1ZM586.9,346.47c-.03-.25-.07-.47-.14-.68-.05-.21-.13-.41-.24-.58-.1-.17-.22-.32-.36-.45-.13-.1-.27-.19-.44-.25-.17-.06-.35-.09-.56-.09s-.37.03-.53.08-.29.13-.41.24c-.17.15-.31.34-.41.58-.1.23-.18.5-.22.79-.03.17-.05.35-.06.54-.01.19-.02.39-.02.59v1.74c0,.17,0,.35.02.52.02.17.04.34.08.5.05.25.13.47.24.67s.24.37.4.5c.11.1.25.18.4.23.15.05.32.08.52.08s.37-.03.53-.08c.16-.06.3-.13.43-.23.16-.13.29-.3.41-.49.11-.2.2-.41.26-.63.05-.17.08-.34.1-.52.02-.18.03-.36.03-.54v-1.74c0-.27-.01-.53-.04-.77Z"/><path class="cls-27" d="M596.92,349.56c0,.56-.08,1.05-.23,1.48-.15.43-.37.8-.66,1.09-.29.3-.65.53-1.06.68-.42.16-.89.23-1.43.23-.5,0-.95-.08-1.36-.23-.4-.16-.75-.38-1.04-.68s-.51-.66-.67-1.1c-.16-.44-.24-.93-.24-1.49v-6.6h1.93v6.6c.01.33.04.62.11.88.06.25.15.46.28.62.11.15.25.26.42.34.16.08.35.11.57.11.23,0,.44-.04.62-.12.18-.08.33-.2.45-.36.13-.16.22-.37.29-.62s.1-.53.1-.85v-6.6h1.91v6.6Z"/><path class="cls-27" d="M600.72,348.56v2.81h4.78v1.55h-6.71v-9.95h6.69v1.57h-4.76v2.51h4.09v1.52h-4.09Z"/><path class="cls-27" d="M613.73,349.56c0,.56-.08,1.05-.23,1.48-.15.43-.37.8-.66,1.09-.29.3-.65.53-1.06.68-.42.16-.89.23-1.43.23-.5,0-.95-.08-1.36-.23-.4-.16-.75-.38-1.04-.68s-.51-.66-.67-1.1c-.16-.44-.24-.93-.24-1.49v-6.6h1.93v6.6c.01.33.04.62.11.88.06.25.15.46.28.62.11.15.25.26.42.34.16.08.35.11.57.11.23,0,.44-.04.62-.12.18-.08.33-.2.45-.36.13-.16.22-.37.29-.62s.1-.53.1-.85v-6.6h1.91v6.6Z"/><path class="cls-27" d="M617.53,348.56v2.81h4.78v1.55h-6.71v-9.95h6.69v1.57h-4.76v2.51h4.09v1.52h-4.09Z"/><path class="cls-27" d="M628.97,349.82c-.06-.16-.17-.3-.31-.44-.15-.13-.35-.25-.58-.37-.24-.11-.54-.21-.89-.31-.55-.15-1.04-.33-1.45-.55-.42-.21-.76-.45-1.02-.7s-.46-.54-.6-.85c-.13-.31-.2-.65-.2-1.01,0-.42.09-.8.27-1.14s.42-.63.74-.88.69-.43,1.11-.56c.43-.13.89-.2,1.39-.2s1,.08,1.42.23c.43.15.8.36,1.11.63.31.27.55.6.72.97s.26.78.26,1.23h-1.87c0-.22-.05-.43-.12-.62-.07-.19-.17-.35-.31-.49-.14-.13-.32-.24-.52-.31-.21-.08-.45-.11-.73-.11-.25,0-.48.03-.68.09-.2.06-.37.15-.5.26-.14.11-.24.25-.31.4-.07.15-.11.32-.11.5,0,.19.05.36.14.51.09.15.23.29.41.4.18.12.39.23.65.33.25.1.54.19.86.28.34.1.67.21.98.35s.59.29.85.47c.39.29.7.63.94,1.02s.35.83.35,1.34c0,.44-.09.83-.26,1.17-.17.34-.42.62-.73.86-.31.24-.68.42-1.11.54-.43.12-.9.18-1.4.18s-.99-.07-1.47-.22c-.49-.15-.91-.37-1.27-.65-.34-.28-.61-.62-.81-1-.2-.38-.3-.83-.3-1.35h1.89c0,.3.06.56.16.77s.23.39.4.53c.17.14.37.24.61.3.24.06.5.1.79.1.25,0,.48-.03.68-.09.2-.06.37-.14.5-.25s.24-.23.31-.38c.07-.15.11-.31.11-.49s-.03-.34-.09-.5Z"/><path class="cls-27" d="M642.6,350.84l-.59,2.08h-2.02l3.26-9.95h1.74l3.2,9.95h-2.02l-.58-2.08h-2.99ZM645.14,349.21l-1.02-3.66-1.05,3.66h2.06Z"/><path class="cls-27" d="M653.74,352.92l-2.77-6.42v6.42h-1.93v-9.95h1.93l2.75,6.39v-6.39h1.93v9.95h-1.91Z"/><path class="cls-27" d="M657.46,342.97h2.58c.46,0,.89.06,1.29.17.4.11.77.27,1.09.47.29.17.54.38.77.62.23.24.42.51.59.8.2.35.35.74.46,1.16.11.42.16.88.16,1.35v.82c0,.46-.05.9-.15,1.31s-.24.79-.42,1.13c-.17.31-.38.59-.61.84-.23.26-.49.47-.77.65-.32.21-.68.36-1.07.47-.39.11-.81.16-1.25.16h-2.67v-9.95ZM659.39,351.38h.74c.24,0,.46-.03.66-.09s.39-.15.56-.26c.17-.12.33-.27.47-.45.14-.19.26-.4.36-.65.08-.21.14-.45.19-.71.04-.26.07-.54.07-.85v-.83c0-.29-.02-.56-.07-.82-.04-.26-.11-.49-.19-.71-.1-.25-.23-.48-.39-.68-.16-.2-.35-.36-.56-.49-.16-.1-.35-.17-.54-.22-.2-.05-.41-.08-.65-.08h-.64v6.85Z"/><path class="cls-27" d="M679.37,349.82c-.06-.16-.17-.3-.31-.44-.15-.13-.35-.25-.58-.37-.24-.11-.54-.21-.89-.31-.55-.15-1.04-.33-1.45-.55-.42-.21-.76-.45-1.02-.7s-.46-.54-.6-.85c-.13-.31-.2-.65-.2-1.01,0-.42.09-.8.27-1.14s.42-.63.74-.88.69-.43,1.11-.56c.43-.13.89-.2,1.39-.2s1,.08,1.42.23c.43.15.8.36,1.11.63.31.27.55.6.72.97s.26.78.26,1.23h-1.87c0-.22-.05-.43-.12-.62-.07-.19-.17-.35-.31-.49-.14-.13-.32-.24-.52-.31-.21-.08-.45-.11-.73-.11-.25,0-.48.03-.68.09-.2.06-.37.15-.5.26-.14.11-.24.25-.31.4-.07.15-.11.32-.11.5,0,.19.05.36.14.51.09.15.23.29.41.4.18.12.39.23.65.33.25.1.54.19.86.28.34.1.67.21.98.35s.59.29.85.47c.39.29.7.63.94,1.02s.35.83.35,1.34c0,.44-.09.83-.26,1.17-.17.34-.42.62-.73.86-.31.24-.68.42-1.11.54-.43.12-.9.18-1.4.18s-.99-.07-1.47-.22c-.49-.15-.91-.37-1.27-.65-.34-.28-.61-.62-.81-1-.2-.38-.3-.83-.3-1.35h1.89c0,.3.06.56.16.77s.23.39.4.53c.17.14.37.24.61.3.24.06.5.1.79.1.25,0,.48-.03.68-.09.2-.06.37-.14.5-.25s.24-.23.31-.38c.07-.15.11-.31.11-.49s-.03-.34-.09-.5Z"/><path class="cls-27" d="M684.74,348.56v2.81h4.78v1.55h-6.71v-9.95h6.69v1.57h-4.76v2.51h4.09v1.52h-4.09Z"/><path class="cls-27" d="M695.75,352.92l-2.77-6.42v6.42h-1.93v-9.95h1.93l2.75,6.39v-6.39h1.93v9.95h-1.91Z"/><path class="cls-27" d="M699.46,342.97h2.58c.46,0,.89.06,1.29.17.4.11.77.27,1.09.47.29.17.54.38.77.62.23.24.42.51.59.8.2.35.35.74.46,1.16.11.42.16.88.16,1.35v.82c0,.46-.05.9-.15,1.31s-.24.79-.42,1.13c-.17.31-.38.59-.61.84-.23.26-.49.47-.77.65-.32.21-.68.36-1.07.47-.39.11-.81.16-1.25.16h-2.67v-9.95ZM701.4,351.38h.74c.24,0,.46-.03.66-.09s.39-.15.56-.26c.17-.12.33-.27.47-.45.14-.19.26-.4.36-.65.08-.21.14-.45.19-.71.04-.26.07-.54.07-.85v-.83c0-.29-.02-.56-.07-.82-.04-.26-.11-.49-.19-.71-.1-.25-.23-.48-.39-.68-.16-.2-.35-.36-.56-.49-.16-.1-.35-.17-.54-.22-.2-.05-.41-.08-.65-.08h-.64v6.85Z"/><path class="cls-27" d="M712.98,349.82c-.06-.16-.17-.3-.31-.44-.15-.13-.35-.25-.58-.37-.24-.11-.54-.21-.89-.31-.55-.15-1.04-.33-1.45-.55-.42-.21-.76-.45-1.02-.7s-.46-.54-.6-.85c-.13-.31-.2-.65-.2-1.01,0-.42.09-.8.27-1.14s.42-.63.74-.88.69-.43,1.11-.56c.43-.13.89-.2,1.39-.2s1,.08,1.42.23c.43.15.8.36,1.11.63.31.27.55.6.72.97s.26.78.26,1.23h-1.87c0-.22-.05-.43-.12-.62-.07-.19-.17-.35-.31-.49-.14-.13-.32-.24-.52-.31-.21-.08-.45-.11-.73-.11-.25,0-.48.03-.68.09-.2.06-.37.15-.5.26-.14.11-.24.25-.31.4-.07.15-.11.32-.11.5,0,.19.05.36.14.51.09.15.23.29.41.4.18.12.39.23.65.33.25.1.54.19.86.28.34.1.67.21.98.35s.59.29.85.47c.39.29.7.63.94,1.02s.35.83.35,1.34c0,.44-.09.83-.26,1.17-.17.34-.42.62-.73.86-.31.24-.68.42-1.11.54-.43.12-.9.18-1.4.18s-.99-.07-1.47-.22c-.49-.15-.91-.37-1.27-.65-.34-.28-.61-.62-.81-1-.2-.38-.3-.83-.3-1.35h1.89c0,.3.06.56.16.77s.23.39.4.53c.17.14.37.24.61.3.24.06.5.1.79.1.25,0,.48-.03.68-.09.2-.06.37-.14.5-.25s.24-.23.31-.38c.07-.15.11-.31.11-.49s-.03-.34-.09-.5Z"/><path class="cls-27" d="M723.99,342.97h1.76l.66,5.56.05.39.06-.41.79-5.54h1.37l.83,5.58.06.41.05-.42.68-5.58h1.76l-1.38,9.95h-1.74l-.87-5.37-.08-.51-.08.51-.83,5.37h-1.74l-1.37-9.95Z"/><path class="cls-27" d="M735.03,349.2v3.72h-1.92v-9.95h3.34c.55,0,1.05.06,1.5.2.45.13.83.32,1.15.57.31.25.56.56.73.94.17.37.26.81.26,1.3,0,.36-.04.68-.13.96-.08.29-.2.54-.36.76-.16.23-.35.43-.57.59-.22.17-.47.31-.74.44l2.14,4.11v.09h-2.06l-1.87-3.72h-1.46ZM736.45,347.64c.3,0,.56-.04.78-.13.22-.08.41-.21.55-.37.12-.13.21-.28.27-.46.06-.18.09-.38.09-.59,0-.26-.04-.5-.12-.7-.08-.2-.2-.37-.36-.5-.14-.12-.31-.21-.52-.27s-.44-.1-.7-.1h-1.42v3.12h1.42Z"/><path class="cls-27" d="M747.69,342.97v1.55h-1.94v6.86h1.94v1.54h-5.76v-1.54h1.89v-6.86h-1.89v-1.55h5.76Z"/><path class="cls-27" d="M754.16,344.53v8.39h-1.93v-8.39h-3.03v-1.57h8.03v1.57h-3.07Z"/><path class="cls-27" d="M760.35,348.56v2.81h4.78v1.55h-6.71v-9.95h6.69v1.57h-4.76v2.51h4.09v1.52h-4.09Z"/><path class="cls-27" d="M771.79,349.82c-.06-.16-.17-.3-.31-.44-.15-.13-.35-.25-.58-.37-.24-.11-.54-.21-.89-.31-.55-.15-1.04-.33-1.45-.55-.42-.21-.76-.45-1.02-.7s-.46-.54-.6-.85c-.13-.31-.2-.65-.2-1.01,0-.42.09-.8.27-1.14s.42-.63.74-.88.69-.43,1.11-.56c.43-.13.89-.2,1.39-.2s1,.08,1.42.23c.43.15.8.36,1.11.63.31.27.55.6.72.97s.26.78.26,1.23h-1.87c0-.22-.05-.43-.12-.62-.07-.19-.17-.35-.31-.49-.14-.13-.32-.24-.52-.31-.21-.08-.45-.11-.73-.11-.25,0-.48.03-.68.09-.2.06-.37.15-.5.26-.14.11-.24.25-.31.4-.07.15-.11.32-.11.5,0,.19.05.36.14.51.09.15.23.29.41.4.18.12.39.23.65.33.25.1.54.19.86.28.34.1.67.21.98.35s.59.29.85.47c.39.29.7.63.94,1.02s.35.83.35,1.34c0,.44-.09.83-.26,1.17-.17.34-.42.62-.73.86-.31.24-.68.42-1.11.54-.43.12-.9.18-1.4.18s-.99-.07-1.47-.22c-.49-.15-.91-.37-1.27-.65-.34-.28-.61-.62-.81-1-.2-.38-.3-.83-.3-1.35h1.89c0,.3.06.56.16.77s.23.39.4.53c.17.14.37.24.61.3.24.06.5.1.79.1.25,0,.48-.03.68-.09.2-.06.37-.14.5-.25s.24-.23.31-.38c.07-.15.11-.31.11-.49s-.03-.34-.09-.5Z"/><path class="cls-27" d="M787.76,344.53v8.39h-1.93v-8.39h-3.03v-1.57h8.03v1.57h-3.07Z"/><path class="cls-27" d="M798.75,349.89c-.08.39-.19.74-.33,1.07-.16.33-.35.63-.57.9s-.49.5-.78.68c-.26.16-.55.28-.87.37-.32.09-.66.13-1.02.13-.39,0-.75-.05-1.07-.15s-.63-.24-.9-.42c-.26-.19-.5-.42-.71-.69-.21-.27-.38-.58-.53-.92-.13-.31-.22-.66-.29-1.03-.07-.37-.1-.76-.1-1.17v-1.45c0-.44.04-.85.11-1.24.07-.39.19-.75.33-1.09.14-.31.31-.6.52-.85.2-.25.44-.47.7-.66.26-.18.55-.31.88-.41s.67-.14,1.05-.14.74.05,1.08.15c.33.1.64.24.91.42.27.17.5.38.71.63.2.25.38.52.52.81.16.34.28.71.37,1.11.08.4.13.83.13,1.28v1.45c0,.43-.04.83-.12,1.22ZM796.88,346.48c-.03-.23-.07-.44-.12-.64-.07-.25-.16-.47-.27-.66-.11-.19-.25-.35-.4-.48-.12-.09-.26-.16-.41-.21-.15-.05-.32-.08-.51-.08s-.34.02-.48.07c-.14.05-.27.11-.39.2-.16.13-.29.29-.39.48-.11.19-.19.42-.25.67-.05.2-.08.41-.1.64-.02.23-.03.48-.03.73v1.46c0,.24,0,.47.03.7s.05.43.1.62c.05.24.12.46.22.66.1.2.21.36.35.48.12.11.26.19.42.25.16.06.34.09.54.09s.37-.03.53-.08.3-.13.42-.24c.16-.13.29-.29.39-.48.11-.19.19-.41.26-.66.05-.19.09-.4.11-.63.02-.23.04-.46.04-.71v-1.46c0-.25-.01-.5-.04-.73Z"/><path class="cls-27" d="M721.38,178.89c-.06-.16-.17-.3-.31-.44-.15-.13-.35-.25-.58-.37-.24-.11-.54-.21-.89-.31-.55-.15-1.04-.33-1.45-.55-.42-.21-.76-.45-1.02-.7s-.46-.54-.6-.85c-.13-.31-.2-.65-.2-1.01,0-.42.09-.8.27-1.14s.42-.63.74-.88.69-.43,1.11-.56c.43-.13.89-.2,1.39-.2s1,.08,1.42.23c.43.15.8.36,1.11.63.31.27.55.6.72.97s.26.78.26,1.23h-1.87c0-.22-.05-.43-.12-.62-.07-.19-.17-.35-.31-.49-.14-.13-.32-.24-.52-.31-.21-.08-.45-.11-.73-.11-.25,0-.48.03-.68.09-.2.06-.37.15-.5.26-.14.11-.24.25-.31.4-.07.15-.11.32-.11.5,0,.19.05.36.14.51.09.15.23.29.41.4.18.12.39.23.65.33.25.1.54.19.86.28.34.1.67.21.98.35s.59.29.85.47c.39.29.7.63.94,1.02s.35.83.35,1.34c0,.44-.09.83-.26,1.17-.17.34-.42.62-.73.86-.31.24-.68.42-1.11.54-.43.12-.9.18-1.4.18s-.99-.07-1.47-.22c-.49-.15-.91-.37-1.27-.65-.34-.28-.61-.62-.81-1-.2-.38-.3-.83-.3-1.35h1.89c0,.3.06.56.16.77s.23.39.4.53c.17.14.37.24.61.3.24.06.5.1.79.1.25,0,.48-.03.68-.09.2-.06.37-.14.5-.25s.24-.23.31-.38c.07-.15.11-.31.11-.49s-.03-.34-.09-.5Z"/><path class="cls-27" d="M728.95,173.6v8.39h-1.93v-8.39h-3.03v-1.57h8.03v1.57h-3.07Z"/><path class="cls-27" d="M735.03,178.27v3.72h-1.92v-9.95h3.34c.55,0,1.05.06,1.5.2.45.13.83.32,1.15.57.31.25.56.56.73.94.17.37.26.81.26,1.3,0,.36-.04.68-.13.96-.08.29-.2.54-.36.76-.16.23-.35.43-.57.59-.22.17-.47.31-.74.44l2.14,4.11v.09h-2.06l-1.87-3.72h-1.46ZM736.45,176.71c.3,0,.56-.04.78-.13.22-.08.41-.21.55-.37.12-.13.21-.28.27-.46.06-.18.09-.38.09-.59,0-.26-.04-.5-.12-.7-.08-.2-.2-.37-.36-.5-.14-.12-.31-.21-.52-.27s-.44-.1-.7-.1h-1.42v3.12h1.42Z"/><path class="cls-27" d="M743.55,177.63v2.81h4.78v1.55h-6.71v-9.95h6.69v1.57h-4.76v2.51h4.09v1.52h-4.09Z"/><path class="cls-27" d="M751.82,179.91l-.59,2.08h-2.02l3.26-9.95h1.74l3.2,9.95h-2.02l-.58-2.08h-2.99ZM754.35,178.28l-1.02-3.66-1.05,3.66h2.06Z"/><path class="cls-27" d="M761.61,175.78l1.07-3.74h2.39v9.95h-1.76v-2.95l.08-4.66-1.31,4.32h-.95l-1.17-4.14.08,4.47v2.95h-1.76v-9.95h2.39l.94,3.74Z"/><path class="cls-27" d="M771.79,178.89c-.06-.16-.17-.3-.31-.44-.15-.13-.35-.25-.58-.37-.24-.11-.54-.21-.89-.31-.55-.15-1.04-.33-1.45-.55-.42-.21-.76-.45-1.02-.7s-.46-.54-.6-.85c-.13-.31-.2-.65-.2-1.01,0-.42.09-.8.27-1.14s.42-.63.74-.88.69-.43,1.11-.56c.43-.13.89-.2,1.39-.2s1,.08,1.42.23c.43.15.8.36,1.11.63.31.27.55.6.72.97s.26.78.26,1.23h-1.87c0-.22-.05-.43-.12-.62-.07-.19-.17-.35-.31-.49-.14-.13-.32-.24-.52-.31-.21-.08-.45-.11-.73-.11-.25,0-.48.03-.68.09-.2.06-.37.15-.5.26-.14.11-.24.25-.31.4-.07.15-.11.32-.11.5,0,.19.05.36.14.51.09.15.23.29.41.4.18.12.39.23.65.33.25.1.54.19.86.28.34.1.67.21.98.35s.59.29.85.47c.39.29.7.63.94,1.02s.35.83.35,1.34c0,.44-.09.83-.26,1.17-.17.34-.42.62-.73.86-.31.24-.68.42-1.11.54-.43.12-.9.18-1.4.18s-.99-.07-1.47-.22c-.49-.15-.91-.37-1.27-.65-.34-.28-.61-.62-.81-1-.2-.38-.3-.83-.3-1.35h1.89c0,.3.06.56.16.77s.23.39.4.53c.17.14.37.24.61.3.24.06.5.1.79.1.25,0,.48-.03.68-.09.2-.06.37-.14.5-.25s.24-.23.31-.38c.07-.15.11-.31.11-.49s-.03-.34-.09-.5Z"/><path class="cls-27" d="M787.76,173.6v8.39h-1.93v-8.39h-3.03v-1.57h8.03v1.57h-3.07Z"/><path class="cls-27" d="M798.75,178.97c-.08.39-.19.74-.33,1.07-.16.33-.35.63-.57.9s-.49.5-.78.68c-.26.16-.55.28-.87.37-.32.09-.66.13-1.02.13-.39,0-.75-.05-1.07-.15s-.63-.24-.9-.42c-.26-.19-.5-.42-.71-.69-.21-.27-.38-.58-.53-.92-.13-.31-.22-.66-.29-1.03-.07-.37-.1-.76-.1-1.17v-1.45c0-.44.04-.85.11-1.24.07-.39.19-.75.33-1.09.14-.31.31-.6.52-.85.2-.25.44-.47.7-.66.26-.18.55-.31.88-.41s.67-.14,1.05-.14.74.05,1.08.15c.33.1.64.24.91.42.27.17.5.38.71.63.2.25.38.52.52.81.16.34.28.71.37,1.11.08.4.13.83.13,1.28v1.45c0,.43-.04.83-.12,1.22ZM796.88,175.56c-.03-.23-.07-.44-.12-.64-.07-.25-.16-.47-.27-.66-.11-.19-.25-.35-.4-.48-.12-.09-.26-.16-.41-.21-.15-.05-.32-.08-.51-.08s-.34.02-.48.07c-.14.05-.27.11-.39.2-.16.13-.29.29-.39.48-.11.19-.19.42-.25.67-.05.2-.08.41-.1.64-.02.23-.03.48-.03.73v1.46c0,.24,0,.47.03.7s.05.43.1.62c.05.24.12.46.22.66.1.2.21.36.35.48.12.11.26.19.42.25.16.06.34.09.54.09s.37-.03.53-.08.3-.13.42-.24c.16-.13.29-.29.39-.48.11-.19.19-.41.26-.66.05-.19.09-.4.11-.63.02-.23.04-.46.04-.71v-1.46c0-.25-.01-.5-.04-.73Z"/><rect class="cls-13" x="809.85" y=".5" width="421.67" height="410.97" rx="7.5" ry="7.5"/><path class="cls-7" d="M1224.02,1c3.86,0,7,3.14,7,7v395.97c0,3.86-3.14,7-7,7h-406.67c-3.86,0-7-3.14-7-7V8c0-3.86,3.14-7,7-7h406.67M1224.02,0h-406.67c-4.42,0-8,3.58-8,8v395.97c0,4.42,3.58,8,8,8h406.67c4.42,0,8-3.58,8-8V8C1232.02,3.58,1228.43,0,1224.02,0h0Z"/><rect class="cls-22" x="953.76" y="63.83" width="235.37" height="151.6" rx="7" ry="7"/><path class="cls-4" d="M1182.13,64.83c3.31,0,6,2.69,6,6v137.6c0,3.31-2.69,6-6,6h-221.37c-3.31,0-6-2.69-6-6V70.83c0-3.31,2.69-6,6-6h221.37M1182.13,62.83h-221.37c-4.42,0-8,3.58-8,8v137.6c0,4.42,3.58,8,8,8h221.37c4.42,0,8-3.58,8-8V70.83c0-4.42-3.58-8-8-8h0Z"/><path class="cls-14" d="M1127.78,89.54h47.34c3.31,0,6,2.69,6,6v118.87h-59.34v-118.87c0-3.31,2.69-6,6-6Z"/><path class="cls-14" d="M1005.15,195.76h101.72c3.31,0,6,2.69,6,6v12.65h-113.72v-12.65c0-3.31,2.69-6,6-6Z"/><rect class="cls-4" x="1026.34" y="62.35" width="59.34" height="113.72" rx="6" ry="6" transform="translate(1175.22 -936.81) rotate(90)"/><rect class="cls-2" x="1000.31" y="156.63" width="29.67" height="31.97" rx="6" ry="6" transform="translate(1187.76 -842.52) rotate(90)"/><rect class="cls-2" x="1041.18" y="156.63" width="29.67" height="31.97" rx="6" ry="6" transform="translate(1228.63 -883.4) rotate(90)"/><rect class="cls-2" x="1082.06" y="156.63" width="29.67" height="31.97" rx="6" ry="6" transform="translate(1269.51 -924.28) rotate(90)"/><path class="cls-14" d="M954.79,80.64h35.46v135.79h-27.46c-4.42,0-8-3.58-8-8v-127.79h0Z"/><path class="cls-15" d="M953.76,79.64v-8.8c0-3.86,3.14-7,7-7h221.37c3.86,0,7,3.14,7,7v8.8h-235.37Z"/><path class="cls-4" d="M1182.13,64.83c3.31,0,6,2.69,6,6v7.8h-233.37v-7.8c0-3.31,2.69-6,6-6h221.37M1182.13,62.83h-221.37c-4.4,0-8,3.6-8,8v9.8h237.37v-9.8c0-4.4-3.6-8-8-8h0Z"/><circle class="cls-23" cx="962.83" cy="71.73" r="2.97"/><circle class="cls-5" cx="980.63" cy="71.73" r="2.97"/><circle class="cls-26" cx="971.73" cy="71.73" r="2.97"/><path class="cls-30" d="M237.37,332.32h-102.69c-8.84,0-16-7.16-16-16v-96.23"/><path class="cls-12" d="M133.09,240.59c-.7.45-1.63.24-2.07-.46l-12.33-19.36-12.33,19.36c-.45.7-1.37.91-2.07.46-.7-.45-.9-1.38-.46-2.07l13.59-21.34c.28-.43.75-.69,1.27-.69s.99.26,1.27.69l13.59,21.34c.16.25.23.53.23.8,0,.5-.25.98-.69,1.27Z"/><line class="cls-30" x1="394.57" y1="332.32" x2="875.67" y2="332.32"/><path class="cls-12" d="M415.08,346.72c.45-.7.24-1.63-.46-2.07l-19.36-12.33,19.36-12.33c.7-.45.91-1.37.46-2.07s-1.38-.9-2.07-.46l-21.34,13.59c-.43.28-.69.75-.69,1.27s.26.99.69,1.27l21.34,13.59c.25.16.53.23.8.23.5,0,.98-.25,1.27-.69Z"/><line class="cls-32" x1="917.62" y1="133.4" x2="944.69" y2="106.33"/><path class="cls-25" d="M940.37,131.01c-.81-.18-1.32-.98-1.14-1.79l4.97-22.41-22.41,4.97c-.81.18-1.61-.33-1.79-1.14s.34-1.61,1.14-1.79l24.71-5.48c.5-.11,1.02.04,1.39.4.36.36.51.89.4,1.39l-5.48,24.71c-.06.29-.21.54-.4.73-.35.35-.87.52-1.39.4Z"/><line class="cls-32" x1="1064.43" y1="222.66" x2="1037.36" y2="249.73"/><path class="cls-25" d="M1041.68,225.05c.81.18,1.32.98,1.14,1.79l-4.97,22.41,22.41-4.97c.81-.18,1.61.33,1.79,1.14.18.81-.34,1.61-1.14,1.79l-24.7,5.48c-.5.11-1.02-.04-1.39-.4-.36-.36-.51-.89-.4-1.39l5.48-24.71c.06-.29.21-.54.4-.73.35-.35.87-.52,1.39-.41Z"/><path class="cls-27" d="M208.4,181.99h-1.92v-9.95h3.4c.54,0,1.03.08,1.47.24.44.16.81.37,1.12.65.31.28.54.62.71,1.01.17.39.25.83.25,1.31,0,.45-.08.86-.25,1.24-.17.38-.4.7-.71.98-.31.28-.68.49-1.12.65s-.93.23-1.47.23h-1.48v3.65ZM209.89,176.78c.27,0,.51-.04.71-.12s.37-.19.51-.33c.13-.14.23-.3.3-.49.07-.18.1-.38.1-.58,0-.23-.03-.45-.1-.65-.07-.2-.17-.38-.3-.53-.14-.15-.31-.27-.51-.36s-.44-.13-.71-.13h-1.48v3.19h1.48Z"/><path class="cls-27" d="M221.4,178.63c0,.56-.08,1.05-.23,1.48-.15.43-.37.8-.66,1.09-.29.3-.65.53-1.06.68-.42.16-.89.23-1.43.23-.5,0-.95-.08-1.36-.23-.4-.16-.75-.38-1.04-.68s-.51-.66-.67-1.1c-.16-.44-.24-.93-.24-1.49v-6.6h1.93v6.6c.01.33.04.62.11.88.06.25.15.46.28.62.11.15.25.26.42.34.16.08.35.11.57.11.23,0,.44-.04.62-.12.18-.08.33-.2.45-.36.13-.16.22-.37.29-.62s.1-.53.1-.85v-6.6h1.91v6.6Z"/><path class="cls-27" d="M223.15,172.04h3.34c.54,0,1.04.05,1.48.16.44.11.82.28,1.14.5s.56.51.73.85c.17.34.26.75.26,1.21,0,.3-.06.58-.16.85-.1.27-.25.5-.45.7-.11.11-.23.21-.37.3-.14.09-.29.17-.46.23h0c.33.1.59.21.78.36.19.14.36.31.49.49.14.2.24.42.3.65.07.23.1.48.1.73,0,.48-.08.9-.25,1.26s-.4.67-.7.92-.68.43-1.11.55-.93.18-1.48.18h-3.63v-9.95ZM226.5,176.21c.29,0,.55-.04.77-.11.22-.07.4-.17.54-.3.11-.1.2-.23.26-.38.06-.15.09-.32.09-.51s-.03-.38-.08-.53c-.05-.15-.13-.28-.24-.38-.14-.14-.32-.24-.55-.31-.23-.06-.5-.1-.81-.1h-1.42v2.61h1.43ZM225.08,180.44h1.71c.25,0,.48-.03.67-.1.2-.06.36-.15.5-.26.15-.12.26-.27.33-.44.07-.17.11-.37.11-.58s-.03-.42-.08-.6c-.06-.18-.15-.33-.27-.45-.12-.13-.28-.23-.48-.29s-.43-.1-.7-.11h-1.79v2.84Z"/><path class="cls-27" d="M238.28,180.44v1.55h-6.59v-9.95h1.93v8.4h4.66Z"/><path class="cls-27" d="M246.14,172.04v1.55h-1.94v6.86h1.94v1.54h-5.76v-1.54h1.89v-6.86h-1.89v-1.55h5.76Z"/><path class="cls-27" d="M253.44,178.89c-.06-.16-.17-.3-.31-.44-.15-.13-.35-.25-.58-.37-.24-.11-.54-.21-.89-.31-.55-.15-1.04-.33-1.45-.55-.42-.21-.76-.45-1.02-.7s-.46-.54-.6-.85c-.13-.31-.2-.65-.2-1.01,0-.42.09-.8.27-1.14s.42-.63.74-.88.69-.43,1.11-.56c.43-.13.89-.2,1.39-.2s1,.08,1.42.23c.43.15.8.36,1.11.63.31.27.55.6.72.97s.26.78.26,1.23h-1.87c0-.22-.05-.43-.12-.62-.07-.19-.17-.35-.31-.49-.14-.13-.32-.24-.52-.31-.21-.08-.45-.11-.73-.11-.25,0-.48.03-.68.09-.2.06-.37.15-.5.26-.14.11-.24.25-.31.4-.07.15-.11.32-.11.5,0,.19.05.36.14.51.09.15.23.29.41.4.18.12.39.23.65.33.25.1.54.19.86.28.34.1.67.21.98.35s.59.29.85.47c.39.29.7.63.94,1.02s.35.83.35,1.34c0,.44-.09.83-.26,1.17-.17.34-.42.62-.73.86-.31.24-.68.42-1.11.54-.43.12-.9.18-1.4.18s-.99-.07-1.47-.22c-.49-.15-.91-.37-1.27-.65-.34-.28-.61-.62-.81-1-.2-.38-.3-.83-.3-1.35h1.89c0,.3.06.56.16.77s.23.39.4.53c.17.14.37.24.61.3.24.06.5.1.79.1.25,0,.48-.03.68-.09.2-.06.37-.14.5-.25s.24-.23.31-.38c.07-.15.11-.31.11-.49s-.03-.34-.09-.5Z"/><path class="cls-27" d="M261.44,181.99v-4.31h-2.82v4.31h-1.91v-9.95h1.91v4.08h2.82v-4.08h1.9v9.95h-1.9Z"/><path class="cls-27" d="M267.21,177.63v2.81h4.78v1.55h-6.71v-9.95h6.69v1.57h-4.76v2.51h4.09v1.52h-4.09Z"/><path class="cls-27" d="M278.64,178.89c-.06-.16-.17-.3-.31-.44-.15-.13-.35-.25-.58-.37-.24-.11-.54-.21-.89-.31-.55-.15-1.04-.33-1.45-.55-.42-.21-.76-.45-1.02-.7s-.46-.54-.6-.85c-.13-.31-.2-.65-.2-1.01,0-.42.09-.8.27-1.14s.42-.63.74-.88.69-.43,1.11-.56c.43-.13.89-.2,1.39-.2s1,.08,1.42.23c.43.15.8.36,1.11.63.31.27.55.6.72.97s.26.78.26,1.23h-1.87c0-.22-.05-.43-.12-.62-.07-.19-.17-.35-.31-.49-.14-.13-.32-.24-.52-.31-.21-.08-.45-.11-.73-.11-.25,0-.48.03-.68.09-.2.06-.37.15-.5.26-.14.11-.24.25-.31.4-.07.15-.11.32-.11.5,0,.19.05.36.14.51.09.15.23.29.41.4.18.12.39.23.65.33.25.1.54.19.86.28.34.1.67.21.98.35s.59.29.85.47c.39.29.7.63.94,1.02s.35.83.35,1.34c0,.44-.09.83-.26,1.17-.17.34-.42.62-.73.86-.31.24-.68.42-1.11.54-.43.12-.9.18-1.4.18s-.99-.07-1.47-.22c-.49-.15-.91-.37-1.27-.65-.34-.28-.61-.62-.81-1-.2-.38-.3-.83-.3-1.35h1.89c0,.3.06.56.16.77s.23.39.4.53c.17.14.37.24.61.3.24.06.5.1.79.1.25,0,.48-.03.68-.09.2-.06.37-.14.5-.25s.24-.23.31-.38c.07-.15.11-.31.11-.49s-.03-.34-.09-.5Z"/><path class="cls-27" d="M294.62,173.6v8.39h-1.93v-8.39h-3.03v-1.57h8.03v1.57h-3.07Z"/><path class="cls-27" d="M305.6,178.97c-.08.39-.19.74-.33,1.07-.16.33-.35.63-.57.9s-.49.5-.78.68c-.26.16-.55.28-.87.37-.32.09-.66.13-1.02.13-.39,0-.75-.05-1.07-.15s-.63-.24-.9-.42c-.26-.19-.5-.42-.71-.69-.21-.27-.38-.58-.53-.92-.13-.31-.22-.66-.29-1.03-.07-.37-.1-.76-.1-1.17v-1.45c0-.44.04-.85.11-1.24.07-.39.19-.75.33-1.09.14-.31.31-.6.52-.85.2-.25.44-.47.7-.66.26-.18.55-.31.88-.41s.67-.14,1.05-.14.74.05,1.08.15c.33.1.64.24.91.42.27.17.5.38.71.63.2.25.38.52.52.81.16.34.28.71.37,1.11.08.4.13.83.13,1.28v1.45c0,.43-.04.83-.12,1.22ZM303.73,175.56c-.03-.23-.07-.44-.12-.64-.07-.25-.16-.47-.27-.66-.11-.19-.25-.35-.4-.48-.12-.09-.26-.16-.41-.21-.15-.05-.32-.08-.51-.08s-.34.02-.48.07c-.14.05-.27.11-.39.2-.16.13-.29.29-.39.48-.11.19-.19.42-.25.67-.05.2-.08.41-.1.64-.02.23-.03.48-.03.73v1.46c0,.24,0,.47.03.7s.05.43.1.62c.05.24.12.46.22.66.1.2.21.36.35.48.12.11.26.19.42.25.16.06.34.09.54.09s.37-.03.53-.08.3-.13.42-.24c.16-.13.29-.29.39-.48.11-.19.19-.41.26-.66.05-.19.09-.4.11-.63.02-.23.04-.46.04-.71v-1.46c0-.25-.01-.5-.04-.73Z"/><line class="cls-30" x1="191.48" y1="193.25" x2="471.55" y2="193.25"/><path class="cls-12" d="M451.04,207.65c-.45-.7-.24-1.63.46-2.07l19.36-12.33-19.36-12.33c-.7-.45-.91-1.37-.46-2.07.45-.7,1.38-.9,2.07-.46l21.34,13.59c.43.28.69.75.69,1.27s-.26.99-.69,1.27l-21.34,13.59c-.25.16-.53.23-.8.23-.5,0-.98-.25-1.27-.69Z"/><rect class="cls-3" x="41.89" y="62.83" width="153.6" height="153.6" rx="8" ry="8"/><path class="cls-16" d="M187.48,65.83c2.76,0,5,2.24,5,5v137.6c0,2.76-2.24,5-5,5H49.89c-2.76,0-5-2.24-5-5V70.83c0-2.76,2.24-5,5-5h137.6M187.48,62.83H49.89c-4.42,0-8,3.58-8,8v137.6c0,4.42,3.58,8,8,8h137.6c4.42,0,8-3.58,8-8V70.83c0-4.42-3.58-8-8-8h0Z"/><path class="cls-10" d="M58.61,195.17c-.1,0-.18-.03-.24-.1-.06-.07-.1-.15-.1-.23,0-.05,0-.1.02-.14l3.81-10.29c.03-.12.1-.22.19-.3.1-.08.23-.13.4-.13h2.05c.17,0,.3.04.4.13.1.09.16.19.19.3l3.81,10.29s.02.09.02.14c0,.08-.03.16-.1.23-.06.07-.14.1-.24.1h-1.66c-.16,0-.28-.04-.35-.11s-.12-.14-.14-.21l-.69-1.79h-4.51l-.69,1.79c-.02.06-.07.13-.14.21-.07.08-.19.11-.35.11h-1.66ZM62.05,191h3.31l-1.65-4.61-1.66,4.61Z"/><path class="cls-10" d="M70.93,195.17c-.12,0-.21-.04-.29-.11-.07-.07-.11-.17-.11-.29v-10.4c0-.12.04-.21.11-.29s.17-.11.29-.11h1.46c.16,0,.28.04.35.11.08.07.12.13.14.18l4.27,6.67v-6.56c0-.12.04-.21.11-.29s.17-.11.27-.11h1.63c.12,0,.21.04.29.11.07.07.11.17.11.29v10.4c0,.11-.04.2-.11.28-.08.08-.17.12-.29.12h-1.47c-.16,0-.27-.04-.34-.12s-.12-.14-.15-.17l-4.26-6.46v6.35c0,.12-.04.21-.11.29s-.17.11-.29.11h-1.62Z"/><path class="cls-10" d="M85.25,195.17c-.12,0-.21-.04-.29-.11-.08-.07-.11-.17-.11-.29v-3.52l-3.74-6.77s-.02-.06-.03-.09c-.01-.03-.02-.06-.02-.09,0-.08.04-.16.1-.23s.15-.1.23-.1h1.7c.15,0,.27.04.35.11.08.07.14.14.18.21l2.51,4.4,2.51-4.4c.03-.06.09-.13.18-.21.08-.07.2-.11.35-.11h1.7c.08,0,.16.04.23.1s.1.15.1.23c0,.03,0,.06-.02.09-.01.03-.02.06-.03.09l-3.74,6.77v3.52c0,.12-.04.21-.11.29-.07.08-.17.11-.29.11h-1.76Z"/><path class="cls-10" d="M96.17,195.17c-.12,0-.21-.04-.29-.11-.07-.07-.11-.17-.11-.29v-10.4c0-.12.04-.21.11-.29s.17-.11.29-.11h4.37c.86,0,1.61.13,2.25.4s1.13.67,1.49,1.21c.36.54.54,1.21.54,2.01s-.18,1.48-.54,2.01c-.36.53-.85.92-1.49,1.18-.63.26-1.38.38-2.25.38h-2.14v3.62c0,.12-.04.21-.11.29s-.17.11-.29.11h-1.82ZM98.35,189.17h2.11c.54,0,.97-.13,1.27-.4.3-.27.46-.67.46-1.2,0-.47-.14-.85-.41-1.15-.27-.3-.71-.45-1.32-.45h-2.11v3.2Z"/><path class="cls-10" d="M110.89,195.33c-.97,0-1.81-.16-2.51-.48-.7-.32-1.25-.8-1.65-1.45s-.61-1.46-.64-2.44c-.01-.46-.02-.91-.02-1.37s0-.91.02-1.38c.03-.96.25-1.77.65-2.42.4-.66.95-1.15,1.66-1.48.71-.33,1.54-.5,2.49-.5s1.76.17,2.47.5c.71.33,1.27.82,1.67,1.48.41.66.62,1.46.64,2.42.02.47.03.93.03,1.38s-.01.91-.03,1.37c-.03.98-.25,1.79-.64,2.44-.4.65-.94,1.13-1.65,1.45-.7.32-1.54.48-2.5.48ZM110.89,193.27c.62,0,1.13-.19,1.53-.57.4-.38.61-.98.63-1.82.02-.47.03-.91.03-1.32s-.01-.84-.03-1.3c-.01-.55-.11-1.01-.3-1.36-.19-.35-.45-.61-.76-.78-.31-.17-.68-.25-1.1-.25s-.78.08-1.1.25c-.32.17-.57.42-.76.78-.19.35-.29.81-.31,1.36-.01.46-.02.89-.02,1.3s0,.85.02,1.32c.03.83.25,1.44.64,1.82s.91.57,1.54.57Z"/><path class="cls-10" d="M121.73,195.33c-1.02,0-1.88-.15-2.57-.45-.69-.3-1.21-.69-1.56-1.17-.35-.48-.54-.99-.56-1.54,0-.08.03-.16.1-.23s.14-.1.24-.1h1.71c.14,0,.25.03.32.09.07.06.14.13.21.22.08.18.2.36.36.53.17.17.39.31.68.42.29.11.65.17,1.07.17.69,0,1.21-.11,1.56-.34.35-.22.52-.53.52-.91,0-.28-.09-.5-.28-.67-.19-.17-.48-.33-.88-.46-.4-.14-.93-.29-1.59-.45-.8-.17-1.48-.39-2.04-.66-.56-.27-.98-.62-1.26-1.06-.28-.43-.42-.97-.42-1.61s.18-1.21.53-1.7c.35-.5.85-.89,1.49-1.17.64-.28,1.4-.42,2.29-.42.71,0,1.35.1,1.9.29.55.19,1.01.44,1.38.75.37.31.65.64.84.99.19.35.29.69.3,1.02,0,.08-.03.16-.1.23-.06.07-.14.1-.24.1h-1.79c-.11,0-.2-.02-.29-.06-.09-.04-.16-.12-.21-.22-.06-.28-.25-.52-.57-.73s-.72-.31-1.22-.31-.94.1-1.24.29c-.3.19-.46.49-.46.88,0,.26.08.47.23.65.15.18.42.33.78.46.37.13.86.28,1.46.44.94.19,1.7.42,2.29.69.59.27,1.02.61,1.3,1.03.28.42.42.95.42,1.59,0,.71-.2,1.33-.6,1.84-.4.51-.95.9-1.65,1.18-.7.27-1.51.41-2.44.41Z"/><path class="cls-10" d="M130.88,195.17c-.12,0-.21-.04-.29-.11s-.11-.17-.11-.29v-8.58h-2.91c-.11,0-.2-.04-.27-.11s-.11-.17-.11-.27v-1.44c0-.12.04-.21.11-.29s.17-.11.27-.11h8.38c.12,0,.21.04.29.11.07.07.11.17.11.29v1.44c0,.11-.04.2-.11.27-.08.07-.17.11-.29.11h-2.9v8.58c0,.12-.04.21-.11.29s-.17.11-.29.11h-1.78Z"/><path class="cls-10" d="M142.19,195.33c-1,0-1.86-.17-2.57-.5-.71-.34-1.26-.83-1.65-1.47-.39-.64-.6-1.43-.63-2.34-.01-.46-.02-.95-.02-1.47s0-1.02.02-1.49c.03-.9.24-1.66.63-2.29.39-.63.94-1.11,1.66-1.45.72-.34,1.57-.5,2.55-.5.79,0,1.48.1,2.08.3.6.2,1.1.47,1.5.79s.71.68.93,1.06c.21.38.33.75.34,1.1,0,.1-.03.18-.1.25-.06.07-.15.1-.26.1h-1.98c-.11,0-.19-.02-.25-.06-.06-.04-.11-.11-.15-.19-.08-.19-.19-.39-.36-.58-.17-.2-.39-.37-.66-.5s-.64-.21-1.09-.21c-.67,0-1.2.18-1.59.53-.39.35-.6.93-.63,1.73-.03.92-.03,1.85,0,2.8.03.83.25,1.43.65,1.79.4.36.94.54,1.61.54.44,0,.83-.08,1.18-.23s.62-.4.82-.73c.2-.33.3-.75.3-1.26v-.4h-1.74c-.11,0-.2-.04-.27-.12-.08-.08-.11-.17-.11-.28v-1.02c0-.12.04-.21.11-.29s.17-.11.27-.11h3.92c.12,0,.21.04.29.11.07.08.11.17.11.29v1.74c0,.92-.2,1.7-.6,2.35-.4.65-.97,1.15-1.71,1.5-.74.35-1.61.52-2.6.52Z"/><path class="cls-10" d="M149.45,195.17c-.12,0-.21-.04-.29-.11-.07-.07-.11-.17-.11-.29v-10.4c0-.12.04-.21.11-.29s.17-.11.29-.11h4.24c1.33,0,2.38.31,3.15.92.77.61,1.15,1.5,1.15,2.65,0,.78-.19,1.43-.56,1.95-.37.52-.88.91-1.5,1.17l2.26,4c.03.06.05.12.05.18,0,.08-.03.16-.1.23-.06.07-.14.1-.24.1h-1.78c-.19,0-.34-.05-.43-.15-.1-.1-.17-.19-.21-.28l-1.95-3.66h-1.94v3.7c0,.12-.04.21-.11.29s-.17.11-.29.11h-1.74ZM151.6,189.04h2.05c.59,0,1.02-.13,1.3-.4.28-.27.42-.64.42-1.12s-.14-.86-.42-1.14-.71-.42-1.31-.42h-2.05v3.07Z"/><path class="cls-10" d="M160.37,195.17c-.12,0-.21-.04-.29-.11-.07-.07-.11-.17-.11-.29v-10.4c0-.12.04-.21.11-.29s.17-.11.29-.11h7.25c.12,0,.21.04.29.11.07.07.11.17.11.29v1.28c0,.11-.04.2-.11.27s-.17.11-.29.11h-5.18v2.51h4.83c.12,0,.21.04.29.11.08.07.11.17.11.29v1.18c0,.11-.04.2-.11.27s-.17.11-.29.11h-4.83v2.59h5.31c.12,0,.21.04.29.11.07.08.11.17.11.29v1.26c0,.12-.04.21-.11.29s-.17.11-.29.11h-7.38Z"/><path class="cls-10" d="M174.08,195.33c-1.02,0-1.88-.15-2.57-.45-.69-.3-1.21-.69-1.56-1.17-.35-.48-.54-.99-.56-1.54,0-.08.03-.16.1-.23s.14-.1.24-.1h1.71c.14,0,.25.03.32.09.07.06.14.13.21.22.08.18.2.36.36.53.17.17.39.31.68.42.29.11.65.17,1.07.17.69,0,1.21-.11,1.56-.34.35-.22.52-.53.52-.91,0-.28-.09-.5-.28-.67-.19-.17-.48-.33-.88-.46-.4-.14-.93-.29-1.59-.45-.8-.17-1.48-.39-2.04-.66-.56-.27-.98-.62-1.26-1.06-.28-.43-.42-.97-.42-1.61s.18-1.21.53-1.7c.35-.5.85-.89,1.49-1.17.64-.28,1.4-.42,2.29-.42.71,0,1.35.1,1.9.29.55.19,1.01.44,1.38.75.37.31.65.64.84.99.19.35.29.69.3,1.02,0,.08-.03.16-.1.23-.06.07-.14.1-.24.1h-1.79c-.11,0-.2-.02-.29-.06-.09-.04-.16-.12-.21-.22-.06-.28-.25-.52-.57-.73s-.72-.31-1.22-.31-.94.1-1.24.29c-.3.19-.46.49-.46.88,0,.26.08.47.23.65.15.18.42.33.78.46.37.13.86.28,1.46.44.94.19,1.7.42,2.29.69.59.27,1.02.61,1.3,1.03.28.42.42.95.42,1.59,0,.71-.2,1.33-.6,1.84-.4.51-.95.9-1.65,1.18-.7.27-1.51.41-2.44.41Z"/><circle class="cls-28" cx="128.84" cy="117.72" r="2.24"/><path class="cls-28" d="M157.44,145.18c-2.39.99-5.01,1.54-7.77,1.54-2.58,0-5.04-.49-7.3-1.36v-1.46c2.35.73,4.81,1.14,7.31,1.14,3.16,0,6.38-.61,9.48-1.89,1.14-.47,1.68-1.78,1.21-2.92-.47-1.14-1.78-1.68-2.92-1.21-2.55,1.06-5.18,1.55-7.77,1.55-2.52,0-4.99-.5-7.31-1.4v-23.63c0-13.39-10.61-24.26-23.88-24.75-4.75-4.41-10.8-6.65-16.85-6.65-6.34,0-12.7,2.42-17.53,7.26-4.84,4.84-7.26,11.19-7.26,17.53,0,6.05,2.23,12.1,6.64,16.84.46,7.05,6.31,12.62,13.47,12.62,7.47,0,13.51-6.05,13.52-13.52,0-1.24-1-2.24-2.24-2.24s-2.24,1-2.24,2.24c0,2.5-1.01,4.75-2.65,6.39-1.64,1.64-3.89,2.65-6.39,2.65-2.5,0-4.75-1.01-6.39-2.65-1.62-1.63-2.62-3.84-2.64-6.32.02-.6-.19-1.2-.65-1.66-3.97-3.97-5.95-9.16-5.95-14.37,0-5.21,1.98-10.39,5.95-14.37,3.97-3.97,9.16-5.95,14.37-5.95,5.19,0,10.37,1.97,14.34,5.92.11.12.24.22.38.31.02.01.03.02.05.03.1.07.21.13.33.17.09.04.18.06.28.09.04.01.09.03.13.04.16.03.32.05.48.05,5.6.01,10.66,2.28,14.33,5.95,3.68,3.68,5.95,8.75,5.95,14.37v27.4c-4.71-3.37-7.94-8.68-8.46-14.77-.11-1.23-1.19-2.14-2.42-2.04-1.23.11-2.14,1.19-2.04,2.42.09,1.1.28,2.16.52,3.21-3.45-.52-6.79-1.92-9.65-4.21l-.07-.06c-.96-.78-2.37-.63-3.15.33-.78.96-.63,2.37.33,3.15l.08.06h0c4.1,3.3,9.01,5.08,13.98,5.38,2.23,5.03,6.07,9.18,10.88,11.79v11.63c0,7.47,6.05,13.51,13.52,13.52,1.24,0,2.24-1,2.24-2.24s-1-2.24-2.24-2.24c-2.5,0-4.75-1.01-6.39-2.65-1.64-1.64-2.65-3.89-2.65-6.39v-9.74c2.31.71,4.76,1.11,7.3,1.11,3.35,0,6.56-.67,9.49-1.88,1.14-.47,1.68-1.78,1.21-2.92-.47-1.14-1.78-1.68-2.92-1.21Z"/><rect class="cls-3" x="237.37" y="216.48" width="153.6" height="153.6" rx="8" ry="8"/><path class="cls-20" d="M382.97,219.48c2.76,0,5,2.24,5,5v137.6c0,2.76-2.24,5-5,5h-137.6c-2.76,0-5-2.24-5-5v-137.6c0-2.76,2.24-5,5-5h137.6M382.97,216.48h-137.6c-4.42,0-8,3.58-8,8v137.6c0,4.42,3.58,8,8,8h137.6c4.42,0,8-3.58,8-8v-137.6c0-4.42-3.58-8-8-8h0Z"/><path class="cls-10" d="M262.6,348.82c-.12,0-.21-.04-.29-.11-.07-.07-.11-.17-.11-.29v-10.4c0-.12.04-.21.11-.29s.17-.11.29-.11h4.75c.89,0,1.61.13,2.18.38.57.26.98.62,1.26,1.09.27.47.41,1.02.41,1.65,0,.39-.07.74-.22,1.04s-.32.54-.53.74c-.21.19-.41.34-.6.43.42.19.78.51,1.1.95s.47.97.47,1.58c0,.67-.15,1.26-.45,1.76-.3.5-.74.89-1.33,1.17s-1.3.42-2.14.42h-4.9ZM264.75,342.15h2.3c.5,0,.88-.12,1.13-.38.25-.25.38-.57.38-.97s-.13-.71-.38-.95c-.25-.24-.63-.36-1.13-.36h-2.3v2.66ZM264.75,346.95h2.45c.52,0,.92-.15,1.18-.44.27-.29.4-.64.4-1.05s-.14-.76-.41-1.05c-.27-.28-.66-.42-1.18-.42h-2.45v2.96Z"/><path class="cls-10" d="M272.51,348.82c-.1,0-.18-.03-.24-.1-.06-.07-.1-.15-.1-.23,0-.05,0-.1.02-.14l3.81-10.29c.03-.12.1-.22.19-.3.1-.08.23-.13.4-.13h2.05c.17,0,.3.04.4.13.1.09.16.19.19.3l3.81,10.29s.02.09.02.14c0,.08-.03.16-.1.23-.06.07-.14.1-.24.1h-1.66c-.16,0-.28-.04-.35-.11s-.12-.14-.14-.21l-.69-1.79h-4.51l-.69,1.79c-.02.06-.07.13-.14.21-.07.08-.19.11-.35.11h-1.66ZM275.95,344.65h3.31l-1.65-4.61-1.66,4.61Z"/><path class="cls-10" d="M288.63,348.98c-1,0-1.85-.17-2.55-.5-.7-.34-1.24-.83-1.62-1.47-.38-.64-.6-1.43-.64-2.36-.01-.44-.02-.91-.02-1.41s0-.98.02-1.44c.04-.92.26-1.7.65-2.34s.94-1.14,1.64-1.48c.7-.34,1.55-.51,2.53-.51.71,0,1.37.09,1.95.27s1.09.44,1.52.78c.43.34.76.74.99,1.2.23.46.36.97.38,1.54,0,.1-.04.18-.1.24-.07.06-.15.1-.25.1h-1.82c-.13,0-.23-.03-.3-.1-.08-.06-.13-.17-.18-.32-.16-.63-.43-1.06-.8-1.3-.37-.23-.84-.35-1.39-.35-.66,0-1.18.18-1.57.54-.38.36-.59.97-.62,1.81-.03.88-.03,1.77,0,2.69.03.84.24,1.45.62,1.81.38.36.91.54,1.57.54.55,0,1.02-.12,1.4-.36.38-.24.64-.67.79-1.29.04-.16.1-.27.18-.33.07-.06.18-.09.3-.09h1.82c.1,0,.18.03.25.1.07.06.1.14.1.24-.02.57-.15,1.08-.38,1.54-.23.46-.57.86-.99,1.2-.43.34-.93.6-1.52.78-.59.18-1.24.27-1.95.27Z"/><path class="cls-10" d="M295.67,348.82c-.12,0-.21-.04-.29-.11-.07-.07-.11-.17-.11-.29v-10.4c0-.12.04-.21.11-.29s.17-.11.29-.11h1.7c.12,0,.21.04.29.11.07.07.11.17.11.29v3.65l3.3-3.74c.04-.06.12-.13.22-.2.1-.07.24-.1.41-.1h1.94c.1,0,.18.04.24.1.06.07.1.15.1.23,0,.08-.02.14-.06.19l-4.11,4.83,4.42,5.31s.06.11.06.19-.03.16-.1.23c-.06.07-.14.1-.24.1h-2c-.19,0-.34-.04-.43-.13-.1-.08-.16-.14-.19-.18l-3.54-4.1v4c0,.12-.04.21-.11.29s-.17.11-.29.11h-1.7Z"/><path class="cls-10" d="M306.03,348.82c-.12,0-.21-.04-.29-.11-.07-.07-.11-.17-.11-.29v-10.4c0-.12.04-.21.11-.29s.17-.11.29-.11h7.25c.12,0,.21.04.29.11.07.07.11.17.11.29v1.28c0,.11-.04.2-.11.27s-.17.11-.29.11h-5.18v2.51h4.83c.12,0,.21.04.29.11.08.07.11.17.11.29v1.18c0,.11-.04.2-.11.27s-.17.11-.29.11h-4.83v2.59h5.31c.12,0,.21.04.29.11.07.08.11.17.11.29v1.26c0,.12-.04.21-.11.29s-.17.11-.29.11h-7.38Z"/><path class="cls-10" d="M316.11,348.82c-.12,0-.21-.04-.29-.11-.07-.07-.11-.17-.11-.29v-10.4c0-.12.04-.21.11-.29s.17-.11.29-.11h1.46c.16,0,.28.04.35.11.08.07.12.13.14.18l4.27,6.67v-6.56c0-.12.04-.21.11-.29s.17-.11.27-.11h1.63c.12,0,.21.04.29.11.07.07.11.17.11.29v10.4c0,.11-.04.2-.11.28-.08.08-.17.12-.29.12h-1.47c-.16,0-.27-.04-.34-.12s-.12-.14-.15-.17l-4.26-6.46v6.35c0,.12-.04.21-.11.29s-.17.11-.29.11h-1.62Z"/><path class="cls-10" d="M327.51,348.82c-.12,0-.21-.04-.29-.11-.07-.07-.11-.17-.11-.29v-10.4c0-.12.04-.21.11-.29s.17-.11.29-.11h4.02c1.07,0,1.96.17,2.67.5.71.34,1.26.83,1.64,1.47.38.65.58,1.44.6,2.39.01.47.02.88.02,1.23s0,.76-.02,1.22c-.03.99-.23,1.81-.59,2.46s-.9,1.13-1.6,1.45-1.58.47-2.64.47h-4.1ZM329.66,346.76h1.87c.53,0,.97-.08,1.31-.24.34-.16.59-.41.76-.76.17-.35.25-.8.26-1.35.01-.31.02-.59.02-.83,0-.25,0-.49,0-.74,0-.25-.01-.52-.02-.82-.02-.8-.23-1.39-.62-1.77-.39-.38-.99-.57-1.8-.57h-1.79v7.07Z"/><path class="cls-10" d="M340.94,348.82c-.1,0-.18-.03-.24-.1-.06-.07-.1-.15-.1-.23,0-.05,0-.1.02-.14l3.81-10.29c.03-.12.1-.22.19-.3.1-.08.23-.13.4-.13h2.05c.17,0,.3.04.4.13.1.09.16.19.19.3l3.81,10.29s.02.09.02.14c0,.08-.03.16-.1.23-.06.07-.14.1-.24.1h-1.66c-.16,0-.28-.04-.35-.11s-.12-.14-.14-.21l-.69-1.79h-4.51l-.69,1.79c-.02.06-.07.13-.14.21-.07.08-.19.11-.35.11h-1.66ZM344.38,344.65h3.31l-1.65-4.61-1.66,4.61Z"/><path class="cls-10" d="M353.26,348.82c-.12,0-.21-.04-.29-.11-.07-.07-.11-.17-.11-.29v-10.4c0-.12.04-.21.11-.29s.17-.11.29-.11h4.37c.86,0,1.61.13,2.25.4s1.13.67,1.49,1.21c.36.54.54,1.21.54,2.01s-.18,1.48-.54,2.01c-.36.53-.85.92-1.49,1.18-.63.26-1.38.38-2.25.38h-2.14v3.62c0,.12-.04.21-.11.29s-.17.11-.29.11h-1.82ZM355.43,342.82h2.11c.54,0,.97-.13,1.27-.4.3-.27.46-.67.46-1.2,0-.47-.14-.85-.41-1.15-.27-.3-.71-.45-1.32-.45h-2.11v3.2Z"/><path class="cls-10" d="M363.93,348.82c-.12,0-.21-.04-.29-.11-.07-.07-.11-.17-.11-.29v-10.4c0-.12.04-.21.11-.29s.17-.11.29-.11h1.81c.12,0,.21.04.29.11.08.07.11.17.11.29v10.4c0,.12-.04.21-.11.29-.07.08-.17.11-.29.11h-1.81Z"/><path class="cls-1" d="M349.25,267.91c.38-1.38.57-2.81.57-4.25,0-8.88-7.22-16.1-16.1-16.1-2.7,0-5.32.67-7.66,1.94-4.76-7.26-12.93-11.72-21.66-11.72-14.27,0-25.87,11.61-25.87,25.87,0,.08,0,.17,0,.25-8.81,3.56-14.66,12.16-14.66,21.74,0,12.92,10.51,23.43,23.43,23.43h6.7c-.39-.92-.56-1.9-.52-2.88h-6.18c-11.33,0-20.55-9.22-20.55-20.55,0-8.71,5.52-16.51,13.73-19.39.59-.21.98-.82.96-1.45-.01-.38-.03-.77-.03-1.15,0-12.68,10.31-22.99,22.99-22.99,8.19,0,15.83,4.42,19.93,11.53.2.35.53.59.92.68.39.09.8.02,1.13-.21,2.17-1.46,4.71-2.23,7.34-2.23,7.29,0,13.22,5.93,13.22,13.22,0,1.64-.3,3.24-.88,4.77-.15.4-.12.84.08,1.21.2.37.56.63.98.72,8.39,1.7,14.48,9.16,14.48,17.74,0,9.98-8.12,18.11-18.11,18.11h-8.45c.02.99-.18,1.97-.6,2.88h9.05c11.57,0,20.99-9.41,20.99-20.98,0-9.41-6.31-17.65-15.23-20.18Z"/><path class="cls-6" d="M334.01,294.49c1.44,0,2.44-1,2.44-2.23s-1-2.23-2.23-2.23h-.38c-2.36,0-4.48-1.41-5.41-3.58-.08-.19-.13-.39-.16-.59-.75-2.11-.24-4.46,1.35-6.08,1.01-1.01,1.02-2.41.18-3.28,0,0-.02-.02-.03-.03-.42-.42-.98-.65-1.57-.65h0c-.6,0-1.15.23-1.58.65-1.89,1.85-4.45,2.31-6.66,1.33-2.14-.92-3.55-3.04-3.56-5.39,0-1.44-1-2.44-2.23-2.44s-2.23,1-2.23,2.23v.38c-.01,2.36-1.42,4.48-3.58,5.41-.19.08-.39.13-.59.16-2.11.75-4.46.24-6.08-1.35h0c-.06-.06-.12-.11-.17-.17-.41-.41-.97-.64-1.56-.64-.69,0-1.16.23-1.58.65,0,0-.02.02-.03.03-.84.87-.83,2.27.03,3.13,1.85,1.89,2.31,4.44,1.33,6.66-.79,2.16-2.91,3.68-5.35,3.73-.02,0-.23,0-.25,0-1.23,0-2.23,1-2.23,2.23s1,2.23,2.23,2.23h.38c2.36,0,4.48,1.41,5.41,3.58.97,2.2.51,4.75-1.19,6.49-.03.03-.07.07-.11.11-.38.4-.59.87-.65,1.35-.09.67.11,1.35.61,1.85.43.43,1.04.71,1.58.66.6,0,1.15-.23,1.57-.65,1.24-1.22,2.77-1.83,4.31-1.83.8,0,1.59.17,2.35.5,1.19.44,2.17,1.28,2.84,2.36.54.87.87,1.9.9,2.99,0,.02,0,.23,0,.25,0,1.23,1,2.23,2.23,2.23s2.23-1,2.23-2.23v-.38c0-1.03.29-2,.77-2.86.62-1.11,1.59-2.02,2.81-2.55.33-.15.67-.25,1.02-.33.89-.21,1.81-.21,2.69,0,1.02.24,1.99.75,2.79,1.52.04.04.21.21.24.25.33.32.89.56,1.48.56h0c.6,0,1.15-.23,1.58-.65.46-.46.67-1.07.64-1.67-.02-.54-.23-1.07-.64-1.48-1.85-1.88-2.31-4.44-1.34-6.65.93-2.16,3.05-3.56,5.4-3.57ZM314.17,301.17c-4.91,0-8.91-4-8.91-8.91s4-8.91,8.91-8.91,8.91,4,8.91,8.91-4,8.91-8.91,8.91Z"/><circle class="cls-6" cx="314.17" cy="292.26" r="4.46" transform="translate(-76.07 470.67) rotate(-67.5)"/><path class="cls-11" d="M314.17,283.35c-4.91,0-8.91,4-8.91,8.91s4,8.91,8.91,8.91,8.91-4,8.91-8.91-4-8.91-8.91-8.91ZM314.17,296.72c-2.46,0-4.46-2-4.46-4.46s2-4.46,4.46-4.46,4.46,2,4.46,4.46-2,4.46-4.46,4.46Z"/><path class="cls-11" d="M332.7,299.82c.23-.53.75-.87,1.52-.88,3.69,0,6.68-3,6.68-6.68s-3-6.68-6.68-6.68h-.37c-.48,0-.93-.24-1.19-.64-.03-.15-.08-.3-.14-.44-.24-.54-.13-1.17.41-1.72,2.6-2.61,2.6-6.85.09-9.36-.04-.05-.08-.09-.13-.13-1.26-1.24-2.92-1.92-4.69-1.92h0c-1.78,0-3.46.7-4.84,2.08-.43.42-1.06.53-1.62.28-.53-.23-.88-.75-.88-1.52,0-3.69-3-6.68-6.68-6.68s-6.68,3-6.68,6.68v.37c0,.48-.24.93-.63,1.19-.15.03-.3.08-.44.14-.55.24-1.17.13-1.71-.4-.02-.02-.03-.03-.05-.05-1.26-1.24-2.92-1.92-4.68-1.92-1.78-.02-3.42.68-4.68,1.91-.02.02-.03.03-.05.05-2.6,2.61-2.6,6.85.12,9.57.42.43.53,1.05.24,1.73-.21.56-.73.93-1.47.95-3.69,0-6.68,3-6.68,6.68s3,6.68,6.68,6.68h.37c.58,0,1.1.35,1.33.9.24.54.13,1.16-.39,1.7,0,0-.01.01-.02.02-1.23,1.23-1.87,2.83-1.94,4.45-.04.98.13,1.96.52,2.88.33.77.8,1.5,1.43,2.13,1.26,1.26,2.94,1.96,4.72,1.96h0c1.79,0,3.46-.7,4.84-2.08.42-.42,1.05-.53,1.73-.24.56.21.93.73.95,1.47,0,3.69,3,6.68,6.68,6.68s6.68-3,6.68-6.68v-.37c0-.58.35-1.1.9-1.34.55-.24,1.17-.13,1.72.41,1.26,1.26,2.94,1.96,4.72,1.96h0c1.79,0,3.46-.7,4.73-1.96.58-.58,1.02-1.24,1.34-1.94.41-.91.62-1.89.6-2.88-.03-1.7-.71-3.41-2.05-4.75-.42-.43-.53-1.05-.29-1.6,0,0,0-.02,0-.02ZM329.95,304.71c.41.41.62.94.64,1.48.03.6-.18,1.21-.64,1.67-.42.42-.98.65-1.58.65h0c-.6,0-1.15-.23-1.48-.56-.03-.04-.21-.21-.24-.25-.79-.78-1.76-1.28-2.79-1.52-.88-.21-1.8-.21-2.69,0-.34.08-.68.19-1.02.33-1.22.52-2.19,1.44-2.81,2.55-.48.86-.76,1.83-.77,2.86v.38c0,1.23-1,2.23-2.23,2.23s-2.23-1-2.23-2.23c0-.02,0-.23,0-.25-.02-1.09-.36-2.12-.9-2.99-.66-1.08-1.65-1.92-2.84-2.36-.76-.33-1.56-.5-2.35-.5-1.54,0-3.07.62-4.31,1.83-.42.42-.98.65-1.57.65-.54.06-1.15-.23-1.58-.66-.5-.5-.7-1.18-.61-1.85.07-.48.27-.95.65-1.35.04-.04.08-.07.11-.11,1.7-1.74,2.16-4.29,1.19-6.49-.93-2.16-3.05-3.57-5.41-3.58h-.38c-1.23,0-2.23-1-2.23-2.23s1-2.23,2.23-2.23c.02,0,.23,0,.25,0,2.44-.06,4.56-1.57,5.35-3.73.98-2.22.52-4.78-1.33-6.66-.86-.86-.87-2.25-.03-3.13,0,0,.02-.02.03-.03.42-.42.89-.66,1.58-.65.59,0,1.15.23,1.56.64.05.06.11.11.17.16h0c1.63,1.6,3.97,2.1,6.08,1.36.2-.03.4-.08.59-.16,2.16-.93,3.57-3.05,3.58-5.41v-.38c0-1.23,1-2.23,2.23-2.23s2.23,1,2.23,2.44c0,2.35,1.41,4.48,3.56,5.39,2.22.98,4.78.52,6.66-1.33.42-.42.98-.65,1.58-.65h0c.59,0,1.15.23,1.57.65,0,0,.02.02.03.03.85.87.84,2.27-.18,3.28-1.59,1.62-2.1,3.97-1.35,6.08.03.2.08.4.16.59.93,2.16,3.05,3.57,5.41,3.58h.38c1.23,0,2.23,1,2.23,2.23s-1,2.23-2.44,2.23c-2.35,0-4.47,1.41-5.4,3.57-.98,2.22-.51,4.77,1.34,6.65Z"/><rect class="cls-3" x="851.23" y="139.63" width="178.03" height="230.39" rx="8" ry="8"/><path class="cls-21" d="M1021.26,142.63c2.76,0,5,2.24,5,5v214.39c0,2.76-2.24,5-5,5h-162.03c-2.76,0-5-2.24-5-5v-214.39c0-2.76,2.24-5,5-5h162.03M1021.26,139.63h-162.03c-4.42,0-8,3.58-8,8v214.39c0,4.42,3.58,8,8,8h162.03c4.42,0,8-3.58,8-8v-214.39c0-4.42-3.58-8-8-8h0Z"/><path class="cls-10" d="M892.24,330.82c-.12,0-.21-.04-.29-.11-.07-.07-.11-.17-.11-.29v-10.4c0-.12.04-.21.11-.29s.17-.11.29-.11h4.37c.86,0,1.61.13,2.25.4s1.13.67,1.49,1.21c.36.54.54,1.21.54,2.01s-.18,1.48-.54,2.01c-.36.53-.85.92-1.49,1.18-.63.26-1.38.38-2.25.38h-2.14v3.62c0,.12-.04.21-.11.29s-.17.11-.29.11h-1.82ZM894.42,324.82h2.11c.54,0,.97-.13,1.27-.4.3-.27.46-.67.46-1.2,0-.47-.14-.85-.41-1.15-.27-.3-.71-.45-1.32-.45h-2.11v3.2Z"/><path class="cls-10" d="M906.96,330.98c-.97,0-1.81-.16-2.51-.48-.7-.32-1.25-.8-1.65-1.45s-.61-1.46-.64-2.44c-.01-.46-.02-.91-.02-1.37s0-.91.02-1.38c.03-.96.25-1.77.65-2.42.4-.66.95-1.15,1.66-1.48.71-.33,1.54-.5,2.49-.5s1.76.17,2.47.5c.71.33,1.27.82,1.67,1.48.41.66.62,1.46.64,2.42.02.47.03.93.03,1.38s-.01.91-.03,1.37c-.03.98-.25,1.79-.64,2.44-.4.65-.94,1.13-1.65,1.45-.7.32-1.54.48-2.5.48ZM906.96,328.92c.62,0,1.13-.19,1.53-.57.4-.38.61-.98.63-1.82.02-.47.03-.91.03-1.32s-.01-.84-.03-1.3c-.01-.55-.11-1.01-.3-1.36-.19-.35-.45-.61-.76-.78-.31-.17-.68-.25-1.1-.25s-.78.08-1.1.25c-.32.17-.57.42-.76.78-.19.35-.29.81-.31,1.36-.01.46-.02.89-.02,1.3s0,.85.02,1.32c.03.83.25,1.44.64,1.82s.91.57,1.54.57Z"/><path class="cls-10" d="M915.46,330.82c-.17,0-.31-.05-.41-.14-.1-.1-.16-.21-.18-.35l-1.82-10.26s-.02-.04-.02-.06v-.05c0-.08.03-.16.1-.23.06-.07.14-.1.24-.1h1.68c.28,0,.43.11.46.34l1.2,6.77,1.3-4.21c.03-.09.09-.18.16-.27s.2-.14.37-.14h1.01c.17,0,.29.05.37.14.07.1.12.19.14.27l1.31,4.19,1.18-6.75c.03-.22.19-.34.48-.34h1.68c.1,0,.18.04.24.1.06.07.1.15.1.23v.05s0,.04-.02.06l-1.82,10.26c-.02.14-.08.26-.18.35-.1.1-.24.14-.41.14h-1.3c-.17,0-.3-.04-.39-.14s-.15-.18-.18-.28l-1.71-4.96-1.7,4.96c-.03.1-.09.19-.18.28-.09.09-.23.14-.41.14h-1.28Z"/><path class="cls-10" d="M927.2,330.82c-.12,0-.21-.04-.29-.11-.07-.07-.11-.17-.11-.29v-10.4c0-.12.04-.21.11-.29s.17-.11.29-.11h7.25c.12,0,.21.04.29.11.07.07.11.17.11.29v1.28c0,.11-.04.2-.11.27s-.17.11-.29.11h-5.18v2.51h4.83c.12,0,.21.04.29.11.08.07.11.17.11.29v1.18c0,.11-.04.2-.11.27s-.17.11-.29.11h-4.83v2.59h5.31c.12,0,.21.04.29.11.07.08.11.17.11.29v1.26c0,.12-.04.21-.11.29s-.17.11-.29.11h-7.38Z"/><path class="cls-10" d="M937.28,330.82c-.12,0-.21-.04-.29-.11-.07-.07-.11-.17-.11-.29v-10.4c0-.12.04-.21.11-.29s.17-.11.29-.11h4.24c1.33,0,2.38.31,3.15.92.77.61,1.15,1.5,1.15,2.65,0,.78-.19,1.43-.56,1.95-.37.52-.88.91-1.5,1.17l2.26,4c.03.06.05.12.05.18,0,.08-.03.16-.1.23-.06.07-.14.1-.24.1h-1.78c-.19,0-.34-.05-.43-.15-.1-.1-.17-.19-.21-.28l-1.95-3.66h-1.94v3.7c0,.12-.04.21-.11.29s-.17.11-.29.11h-1.74ZM939.42,324.69h2.05c.59,0,1.02-.13,1.3-.4.28-.27.42-.64.42-1.12s-.14-.86-.42-1.14-.71-.42-1.31-.42h-2.05v3.07Z"/><path class="cls-10" d="M951.82,330.98c-1.02,0-1.88-.15-2.57-.45-.69-.3-1.21-.69-1.56-1.17-.35-.48-.54-.99-.56-1.54,0-.08.03-.16.1-.23s.14-.1.24-.1h1.71c.14,0,.25.03.32.09.07.06.14.13.21.22.08.18.2.36.36.53.17.17.39.31.68.42.29.11.65.17,1.07.17.69,0,1.21-.11,1.56-.34.35-.22.52-.53.52-.91,0-.28-.09-.5-.28-.67-.19-.17-.48-.33-.88-.46-.4-.14-.93-.29-1.59-.45-.8-.17-1.48-.39-2.04-.66-.56-.27-.98-.62-1.26-1.06-.28-.43-.42-.97-.42-1.61s.18-1.21.53-1.7c.35-.5.85-.89,1.49-1.17.64-.28,1.4-.42,2.29-.42.71,0,1.35.1,1.9.29.55.19,1.01.44,1.38.75.37.31.65.64.84.99.19.35.29.69.3,1.02,0,.08-.03.16-.1.23-.06.07-.14.1-.24.1h-1.79c-.11,0-.2-.02-.29-.06-.09-.04-.16-.12-.21-.22-.06-.28-.25-.52-.57-.73s-.72-.31-1.22-.31-.94.1-1.24.29c-.3.19-.46.49-.46.88,0,.26.08.47.23.65.15.18.42.33.78.46.37.13.86.28,1.46.44.94.19,1.7.42,2.29.69.59.27,1.02.61,1.3,1.03.28.42.42.95.42,1.59,0,.71-.2,1.33-.6,1.84-.4.51-.95.9-1.65,1.18-.7.27-1.51.41-2.44.41Z"/><path class="cls-10" d="M961.09,330.82c-.12,0-.21-.04-.29-.11-.08-.07-.11-.17-.11-.29v-3.52l-3.74-6.77s-.02-.06-.03-.09c-.01-.03-.02-.06-.02-.09,0-.08.04-.16.1-.23s.15-.1.23-.1h1.7c.15,0,.27.04.35.11.08.07.14.14.18.21l2.51,4.4,2.51-4.4c.03-.06.09-.13.18-.21.08-.07.2-.11.35-.11h1.7c.08,0,.16.04.23.1s.1.15.1.23c0,.03,0,.06-.02.09-.01.03-.02.06-.03.09l-3.74,6.77v3.52c0,.12-.04.21-.11.29-.07.08-.17.11-.29.11h-1.76Z"/><path class="cls-10" d="M968.93,330.82c-.12,0-.21-.04-.29-.11-.07-.07-.11-.17-.11-.29v-10.4c0-.12.04-.21.11-.29s.17-.11.29-.11h1.46c.16,0,.28.04.35.11.08.07.12.13.14.18l4.27,6.67v-6.56c0-.12.04-.21.11-.29s.17-.11.27-.11h1.63c.12,0,.21.04.29.11.07.07.11.17.11.29v10.4c0,.11-.04.2-.11.28-.08.08-.17.12-.29.12h-1.47c-.16,0-.27-.04-.34-.12s-.12-.14-.15-.17l-4.26-6.46v6.35c0,.12-.04.21-.11.29s-.17.11-.29.11h-1.62Z"/><path class="cls-10" d="M984.38,330.98c-1,0-1.85-.17-2.55-.5-.7-.34-1.24-.83-1.62-1.47-.38-.64-.6-1.43-.64-2.36-.01-.44-.02-.91-.02-1.41s0-.98.02-1.44c.04-.92.26-1.7.65-2.34s.94-1.14,1.64-1.48c.7-.34,1.55-.51,2.53-.51.71,0,1.37.09,1.95.27s1.09.44,1.52.78c.43.34.76.74.99,1.2.23.46.36.97.38,1.54,0,.1-.04.18-.1.24-.07.06-.15.1-.25.1h-1.82c-.13,0-.23-.03-.3-.1-.08-.06-.13-.17-.18-.32-.16-.63-.43-1.06-.8-1.3-.37-.23-.84-.35-1.39-.35-.66,0-1.18.18-1.57.54-.38.36-.59.97-.62,1.81-.03.88-.03,1.77,0,2.69.03.84.24,1.45.62,1.81.38.36.91.54,1.57.54.55,0,1.02-.12,1.4-.36.38-.24.64-.67.79-1.29.04-.16.1-.27.18-.33.07-.06.18-.09.3-.09h1.82c.1,0,.18.03.25.1.07.06.1.14.1.24-.02.57-.15,1.08-.38,1.54-.23.46-.57.86-.99,1.2-.43.34-.93.6-1.52.78-.59.18-1.24.27-1.95.27Z"/><path class="cls-10" d="M929.45,348.98c-1.02,0-1.88-.15-2.57-.45-.69-.3-1.21-.69-1.56-1.17-.35-.48-.54-.99-.56-1.54,0-.08.03-.16.1-.23s.14-.1.24-.1h1.71c.14,0,.25.03.32.09.07.06.14.13.21.22.08.18.2.36.36.53.17.17.39.31.68.42.29.11.65.17,1.07.17.69,0,1.21-.11,1.56-.34.35-.22.52-.53.52-.91,0-.28-.09-.5-.28-.67-.19-.17-.48-.33-.88-.46-.4-.14-.93-.29-1.59-.45-.8-.17-1.48-.39-2.04-.66-.56-.27-.98-.62-1.26-1.06-.28-.43-.42-.97-.42-1.61s.18-1.21.53-1.7c.35-.5.85-.89,1.49-1.17.64-.28,1.4-.42,2.29-.42.71,0,1.35.1,1.9.29.55.19,1.01.44,1.38.75.37.31.65.64.84.99.19.35.29.69.3,1.02,0,.08-.03.16-.1.23-.06.07-.14.1-.24.1h-1.79c-.11,0-.2-.02-.29-.06-.09-.04-.16-.12-.21-.22-.06-.28-.25-.52-.57-.73s-.72-.31-1.22-.31-.94.1-1.24.29c-.3.19-.46.49-.46.88,0,.26.08.47.23.65.15.18.42.33.78.46.37.13.86.28,1.46.44.94.19,1.7.42,2.29.69.59.27,1.02.61,1.3,1.03.28.42.42.95.42,1.59,0,.71-.2,1.33-.6,1.84-.4.51-.95.9-1.65,1.18-.7.27-1.51.41-2.44.41Z"/><path class="cls-10" d="M936.25,348.82c-.12,0-.21-.04-.29-.11-.07-.07-.11-.17-.11-.29v-10.4c0-.12.04-.21.11-.29s.17-.11.29-.11h4.02c1.07,0,1.96.17,2.67.5.71.34,1.26.83,1.64,1.47.38.65.58,1.44.6,2.39.01.47.02.88.02,1.23s0,.76-.02,1.22c-.03.99-.23,1.81-.59,2.46s-.9,1.13-1.6,1.45-1.58.47-2.64.47h-4.1ZM938.39,346.76h1.87c.53,0,.97-.08,1.31-.24.34-.16.59-.41.76-.76.17-.35.25-.8.26-1.35.01-.31.02-.59.02-.83,0-.25,0-.49,0-.74,0-.25-.01-.52-.02-.82-.02-.8-.23-1.39-.62-1.77-.39-.38-.99-.57-1.8-.57h-1.79v7.07Z"/><path class="cls-10" d="M947.59,348.82c-.12,0-.21-.04-.29-.11-.07-.07-.11-.17-.11-.29v-10.4c0-.12.04-.21.11-.29s.17-.11.29-.11h1.7c.12,0,.21.04.29.11.07.07.11.17.11.29v3.65l3.3-3.74c.04-.06.12-.13.22-.2.1-.07.24-.1.41-.1h1.94c.1,0,.18.04.24.1.06.07.1.15.1.23,0,.08-.02.14-.06.19l-4.11,4.83,4.42,5.31s.06.11.06.19-.03.16-.1.23c-.06.07-.14.1-.24.1h-2c-.19,0-.34-.04-.43-.13-.1-.08-.16-.14-.19-.18l-3.54-4.1v4c0,.12-.04.21-.11.29s-.17.11-.29.11h-1.7Z"/><rect class="cls-7" x="883.15" y="161.07" width="114.2" height="136.95" rx="7.5" ry="7.5"/><path class="cls-29" d="M989.85,161.57c3.86,0,7,3.14,7,7v121.95c0,3.86-3.14,7-7,7h-99.2c-3.86,0-7-3.14-7-7v-121.95c0-3.86,3.14-7,7-7h99.2M989.85,160.57h-99.2c-4.42,0-8,3.58-8,8v121.95c0,4.42,3.58,8,8,8h99.2c4.42,0,8-3.58,8-8v-121.95c0-4.42-3.58-8-8-8h0Z"/><path class="cls-24" d="M919.46,276.24c-1.02,0-1.88-.15-2.57-.45-.69-.3-1.21-.69-1.56-1.17-.35-.48-.54-.99-.56-1.54,0-.08.03-.16.1-.23s.14-.1.24-.1h1.71c.14,0,.25.03.32.09.07.06.14.13.21.22.08.18.2.36.36.53.17.17.39.31.68.42.29.11.65.17,1.07.17.69,0,1.21-.11,1.56-.34.35-.22.52-.53.52-.91,0-.28-.09-.5-.28-.67-.19-.17-.48-.33-.88-.46-.4-.14-.93-.29-1.59-.45-.8-.17-1.48-.39-2.04-.66-.56-.27-.98-.62-1.26-1.06-.28-.43-.42-.97-.42-1.61s.18-1.21.53-1.7c.35-.5.85-.89,1.49-1.17.64-.28,1.4-.42,2.29-.42.71,0,1.35.1,1.9.29.55.19,1.01.44,1.38.75.37.31.65.64.84.99.19.35.29.69.3,1.02,0,.08-.03.16-.1.23-.06.07-.14.1-.24.1h-1.79c-.11,0-.2-.02-.29-.06-.09-.04-.16-.12-.21-.22-.06-.28-.25-.52-.57-.73s-.72-.31-1.22-.31-.94.1-1.24.29c-.3.19-.46.49-.46.88,0,.26.08.47.23.65.15.18.42.33.78.46.37.13.86.28,1.46.44.94.19,1.7.42,2.29.69.59.27,1.02.61,1.3,1.03.28.42.42.95.42,1.59,0,.71-.2,1.33-.6,1.84-.4.51-.95.9-1.65,1.18-.7.27-1.51.41-2.44.41Z"/><path class="cls-24" d="M933.03,277.12c-.16,0-.29-.05-.38-.14-.09-.09-.16-.17-.22-.23l-.58-.77c-.46.17-.98.26-1.57.26-.97,0-1.81-.16-2.51-.48-.7-.32-1.25-.8-1.64-1.45s-.61-1.46-.65-2.44c-.01-.46-.02-.91-.02-1.37s0-.91.02-1.38c.04-.96.26-1.77.66-2.42.4-.66.95-1.15,1.66-1.48.71-.33,1.53-.5,2.47-.5s1.76.17,2.47.5c.71.33,1.27.82,1.67,1.48s.62,1.46.66,2.42c.02.47.03.93.03,1.38s-.01.91-.03,1.37c-.06,1.37-.45,2.41-1.17,3.12l1.15,1.63s.02.03.03.06c.01.03.02.06.02.1.01.08-.02.16-.08.23-.06.07-.14.1-.24.1h-1.78ZM930.3,274.18c.63,0,1.14-.19,1.54-.57.39-.38.61-.98.64-1.82.02-.47.03-.91.03-1.32s-.01-.84-.03-1.3c-.02-.55-.13-1.01-.31-1.36-.19-.35-.44-.61-.76-.78-.32-.17-.69-.25-1.1-.25s-.77.08-1.09.25c-.32.17-.58.42-.77.78-.19.35-.3.81-.32,1.36-.01.46-.02.89-.02,1.3s0,.85.02,1.32c.03.83.25,1.44.65,1.82.4.38.91.57,1.53.57Z"/><path class="cls-24" d="M937.51,276.08c-.12,0-.21-.04-.29-.11-.07-.07-.11-.17-.11-.29v-10.4c0-.12.04-.21.11-.29s.17-.11.29-.11h1.78c.12,0,.21.04.29.11.07.07.11.17.11.29v8.66h4.96c.12,0,.21.04.29.11.07.08.11.17.11.29v1.34c0,.12-.04.21-.11.29-.07.08-.17.11-.29.11h-7.14Z"/><path class="cls-24" d="M946.68,266.48c-.11,0-.2-.04-.27-.11-.08-.07-.11-.17-.11-.29v-1.28c0-.12.04-.22.11-.3.07-.08.17-.12.27-.12h1.68c.12,0,.22.04.3.12s.12.18.12.3v1.28c0,.12-.04.21-.12.29s-.18.11-.3.11h-1.68ZM946.73,276.08c-.11,0-.2-.04-.27-.11-.08-.07-.11-.17-.11-.29v-7.52c0-.12.04-.21.11-.29s.17-.11.27-.11h1.6c.12,0,.21.04.29.11.07.08.11.17.11.29v7.52c0,.12-.04.21-.11.29s-.17.11-.29.11h-1.6Z"/><path class="cls-24" d="M954.73,276.08c-.66,0-1.23-.11-1.7-.33-.47-.22-.82-.56-1.06-1.02s-.36-1.04-.36-1.73v-3.36h-1.25c-.12,0-.21-.04-.29-.11-.07-.07-.11-.17-.11-.29v-1.09c0-.12.04-.21.11-.29.08-.07.17-.11.29-.11h1.25v-2.64c0-.12.04-.21.12-.29.08-.07.17-.11.28-.11h1.57c.12,0,.21.04.29.11s.11.17.11.29v2.64h2c.11,0,.2.04.27.11.07.08.11.17.11.29v1.09c0,.12-.04.21-.11.29-.08.07-.17.11-.27.11h-2v3.17c0,.41.07.72.22.95.14.23.4.34.76.34h1.17c.11,0,.2.04.27.11.07.08.11.17.11.27v1.18c0,.12-.04.21-.11.29-.07.08-.17.11-.27.11h-1.39Z"/><path class="cls-24" d="M961.61,276.24c-1.23,0-2.2-.34-2.92-1.02s-1.1-1.67-1.14-2.98v-.69c.04-.82.23-1.53.56-2.12.33-.59.79-1.04,1.39-1.36.6-.31,1.3-.47,2.1-.47.9,0,1.65.18,2.25.55s1.06.87,1.36,1.5c.3.63.46,1.36.46,2.18v.37c0,.11-.04.2-.12.27-.08.07-.17.11-.28.11h-5.23v.13c.01.34.08.65.2.94s.3.51.53.68c.23.17.5.26.82.26.27,0,.48-.04.66-.11.17-.08.31-.17.42-.27.11-.11.2-.2.25-.27.1-.11.17-.17.23-.2s.15-.04.28-.04h1.66c.11,0,.19.03.26.09s.1.14.09.25c-.01.17-.1.38-.26.63-.17.25-.41.5-.73.74-.32.24-.72.44-1.19.6-.48.16-1.02.24-1.64.24ZM960.02,271.14h3.14v-.03c0-.38-.06-.72-.18-1-.12-.28-.3-.5-.54-.66-.23-.16-.52-.24-.85-.24s-.61.08-.85.24c-.24.16-.41.38-.54.66-.12.28-.18.62-.18,1v.03Z"/><path class="cls-1" d="M931.04,238.12c-13.49,0-22.11-3.12-22.11-5.26v-11.54c4,2.75,13.09,4.17,22.11,4.17.64,0,1.27,0,1.91-.02v-2.11c-.63.01-1.26.02-1.91.02-13.49,0-22.11-3.12-22.11-5.26v-11.54c4,2.75,13.09,4.17,22.11,4.17,3.94,0,7.9-.27,11.44-.81l2.63-2.63c-3.66.79-8.44,1.33-14.07,1.33-13.49,0-22.11-3.12-22.11-5.26v-11.54c4,2.75,13.09,4.17,22.11,4.17s18.11-1.42,22.11-4.17v7.52c.67-.57,1.37-1.09,2.11-1.55v-9.17c0-4.84-12.18-7.37-24.21-7.37s-24.21,2.53-24.21,7.37v44.21c0,4.84,12.18,7.37,24.21,7.37.64,0,1.27,0,1.91-.02v-2.11c-.63.01-1.26.02-1.91.02ZM931.04,183.39c13.49,0,22.11,3.12,22.11,5.26s-8.61,5.26-22.11,5.26-22.11-3.12-22.11-5.26,8.61-5.26,22.11-5.26Z"/><polygon class="cls-6" points="951.29 234.76 950.88 234.76 946.88 234.76 946.86 234.76 944.75 236.87 942.15 239.47 940.11 241.51 946.88 241.51 950.88 241.51 957.44 241.51 964.17 234.76 954.56 234.76 951.29 234.76"/><path class="cls-6" d="M975.27,203.36c-2.71-2.71-6.31-4.2-10.13-4.2s-7.2,1.41-9.88,3.97c-.08.08-.17.15-.25.23l-4.12,4.12-.53.53-3.47,3.47-9.74,9.74v17.33l.7-.7,6.66-6.66s0,0,0,0l2.37-2.37,4-4,2.27-2.27,2.11-2.11,8.41-8.41c.82-.82,2.15-.82,2.97,0s.82,2.15,0,2.97l-11.38,11.38-2.11,2.11-2.09,2.09h17.29l6.92-6.94s0,0,0,0c2.71-2.71,4.2-6.31,4.2-10.13s-1.49-7.43-4.2-10.13Z"/><path class="cls-27" d="M978.24,200.39c-3.5-3.5-8.15-5.43-13.1-5.43-3.55,0-6.95,1-9.88,2.85-.73.46-1.44.98-2.11,1.55-.38.32-.75.66-1.11,1.02l-1.15,1.15-4,4-1.77,1.77-2.63,2.63-8.91,8.91c-.39.39-.61.93-.61,1.48v22.39l-7.6,7.6c-.82.82-.82,2.15,0,2.97.41.41.95.61,1.48.61s1.07-.2,1.48-.61l7.6-7.59h22.39c.56,0,1.09-.22,1.49-.62l10.76-10.79c.13-.1.24-.21.34-.34l7.34-7.37c3.5-3.5,5.42-8.15,5.42-13.1s-1.93-9.6-5.43-13.1ZM957.44,241.51h-17.33l2.04-2.04,2.6-2.6,2.11-2.11h17.31l-6.73,6.75ZM975.27,223.63s0,0,0,0l-6.92,6.94h-17.29l2.09-2.09,2.11-2.11,11.38-11.38c.82-.82.82-2.15,0-2.97s-2.15-.82-2.97,0l-8.41,8.41-2.11,2.11-2.27,2.27-4,4-2.37,2.37s0,0,0,0l-6.66,6.66-.7.7v-17.33l9.74-9.74,3.47-3.47.53-.53,4.12-4.12c.08-.08.17-.15.25-.23,2.68-2.56,6.17-3.97,9.88-3.97s7.43,1.49,10.13,4.2c2.71,2.71,4.2,6.31,4.2,10.13s-1.49,7.43-4.2,10.13Z"/><path class="cls-3" d="M809.85,41.39V8c0-4.14,3.36-7.5,7.5-7.5h145.1v33.39c0,4.14-3.36,7.5-7.5,7.5h-145.1Z"/><path class="cls-8" d="M961.94,1v32.89c0,3.86-3.14,7-7,7h-144.6V8c0-3.86,3.14-7,7-7h144.6M962.94,0h-145.6c-4.42,0-8,3.58-8,8v33.89h145.6c4.42,0,8-3.58,8-8V0h0Z"/><path class="cls-24" d="M855.38,25.05c-.1,0-.19-.03-.25-.1s-.1-.15-.1-.25v-3.08l-3.28-5.92s-.02-.05-.03-.08c0-.02-.01-.05-.01-.08,0-.08.03-.14.09-.2.06-.06.13-.09.2-.09h1.48c.13,0,.23.03.31.1.08.07.13.13.15.18l2.2,3.85,2.2-3.85c.03-.06.08-.12.15-.18.08-.07.18-.1.31-.1h1.48c.08,0,.14.03.2.09s.09.13.09.2c0,.03,0,.05-.01.08,0,.02-.02.05-.03.08l-3.28,5.92v3.08c0,.1-.03.19-.1.25s-.15.1-.25.1h-1.54Z"/><path class="cls-24" d="M865.33,25.19c-.85,0-1.58-.14-2.2-.42-.62-.28-1.1-.7-1.44-1.27-.35-.56-.53-1.28-.56-2.13,0-.4-.01-.8-.01-1.2s0-.8.01-1.21c.03-.84.22-1.55.57-2.12s.83-1.01,1.46-1.29,1.35-.43,2.18-.43,1.54.15,2.16.43,1.11.72,1.46,1.29.54,1.28.56,2.12c.02.41.03.81.03,1.21s0,.8-.03,1.2c-.03.86-.21,1.57-.56,2.13-.34.56-.83.99-1.44,1.27-.62.28-1.34.42-2.18.42ZM865.33,23.38c.54,0,.99-.17,1.34-.5.35-.33.53-.86.55-1.59.02-.41.03-.8.03-1.16s0-.74-.03-1.14c0-.49-.1-.88-.27-1.19-.17-.31-.39-.53-.67-.68s-.59-.22-.96-.22-.69.07-.97.22-.5.37-.67.68c-.16.31-.25.71-.27,1.19,0,.4-.01.78-.01,1.14s0,.75.01,1.16c.03.73.21,1.26.56,1.59.34.33.79.5,1.34.5Z"/><path class="cls-24" d="M875.29,25.19c-.82,0-1.54-.14-2.16-.41-.62-.27-1.09-.7-1.43-1.27s-.5-1.3-.5-2.19v-5.71c0-.1.03-.19.1-.25s.15-.1.25-.1h1.53c.1,0,.19.03.25.1s.1.15.1.25v5.7c0,.69.16,1.2.49,1.54.33.34.78.5,1.37.5s1.03-.17,1.36-.5c.33-.34.49-.85.49-1.54v-5.7c0-.1.04-.19.11-.25s.15-.1.25-.1h1.54c.09,0,.17.03.24.1s.1.15.1.25v5.71c0,.89-.17,1.62-.5,2.19s-.81,1-1.41,1.27c-.61.28-1.33.41-2.16.41Z"/><path class="cls-24" d="M881.7,25.05c-.1,0-.19-.03-.25-.1s-.1-.15-.1-.25v-9.1c0-.1.03-.19.1-.25s.15-.1.25-.1h3.71c1.17,0,2.09.27,2.76.8.67.54,1.01,1.31,1.01,2.32,0,.68-.16,1.25-.49,1.71-.33.46-.77.8-1.32,1.02l1.97,3.5c.03.06.04.11.04.15,0,.08-.03.14-.08.2-.06.06-.13.09-.21.09h-1.55c-.17,0-.29-.04-.38-.13s-.14-.17-.18-.25l-1.71-3.21h-1.69v3.23c0,.1-.03.19-.1.25s-.15.1-.25.1h-1.53ZM883.57,19.68h1.79c.51,0,.89-.12,1.14-.35.25-.23.37-.56.37-.98s-.12-.75-.36-.99-.63-.36-1.15-.36h-1.79v2.69Z"/><path class="cls-24" d="M893.07,25.05c-.08,0-.15-.03-.21-.09s-.08-.13-.08-.2c0-.05,0-.09.01-.13l3.33-9c.03-.1.08-.19.17-.27.08-.07.2-.11.35-.11h1.79c.15,0,.27.04.35.11.08.08.14.16.17.27l3.33,9s.01.08.01.13c0,.08-.03.14-.08.2-.06.06-.13.09-.21.09h-1.46c-.14,0-.24-.03-.31-.1s-.11-.13-.13-.18l-.6-1.57h-3.95l-.6,1.57c-.02.06-.06.12-.13.18s-.17.1-.31.1h-1.46ZM896.08,21.39h2.9l-1.44-4.03-1.46,4.03Z"/><path class="cls-24" d="M903.85,25.05c-.1,0-.19-.03-.25-.1s-.1-.15-.1-.25v-9.1c0-.1.03-.19.1-.25s.15-.1.25-.1h3.82c.76,0,1.41.12,1.97.35s.99.59,1.3,1.06c.31.47.47,1.06.47,1.76s-.16,1.29-.47,1.76c-.31.46-.75.8-1.3,1.03-.56.22-1.21.34-1.97.34h-1.88v3.16c0,.1-.03.19-.1.25-.07.07-.15.1-.25.1h-1.6ZM905.75,19.8h1.85c.48,0,.85-.12,1.11-.35s.4-.58.4-1.05c0-.41-.12-.75-.36-1.01-.24-.26-.62-.39-1.16-.39h-1.85v2.8Z"/><path class="cls-24" d="M913.18,25.05c-.1,0-.19-.03-.25-.1s-.1-.15-.1-.25v-9.1c0-.1.03-.19.1-.25s.15-.1.25-.1h3.82c.76,0,1.41.12,1.97.35s.99.59,1.3,1.06c.31.47.47,1.06.47,1.76s-.16,1.29-.47,1.76c-.31.46-.75.8-1.3,1.03-.56.22-1.21.34-1.97.34h-1.88v3.16c0,.1-.03.19-.1.25-.07.07-.15.1-.25.1h-1.6ZM915.09,19.8h1.85c.48,0,.85-.12,1.11-.35s.4-.58.4-1.05c0-.41-.12-.75-.36-1.01-.24-.26-.62-.39-1.16-.39h-1.85v2.8Z"/><line class="cls-30" x1="652.56" y1="193.25" x2="879.04" y2="193.25"/><path class="cls-12" d="M858.54,207.65c-.45-.7-.24-1.63.46-2.07l19.36-12.33-19.36-12.33c-.7-.45-.91-1.37-.46-2.07s1.38-.9,2.07-.46l21.34,13.59c.43.28.69.75.69,1.27s-.26.99-.69,1.27l-21.34,13.59c-.25.16-.53.23-.8.23-.5,0-.98-.25-1.27-.69Z"/><path class="cls-19" d="M618.41,42.46l-6.9-11.95c-.85-1.47-2.42-2.38-4.12-2.38h-7.11c-.61,0-.99.66-.69,1.19l1.54,2.67c.28.49.81.79,1.37.79h3.11c1.13,0,2.18.6,2.75,1.59l5.13,8.88c.57.98.57,2.19,0,3.17l-5.13,8.88c-.57.98-1.61,1.59-2.75,1.59h-10.25c-1.13,0-2.18-.6-2.75-1.59l-11.09-19.21c-.31-.53.08-1.19.69-1.19h3.11c.61,0,.99-.66.69-1.19l-1.54-2.67c-.28-.49-.81-.79-1.37-.79h-6.71c-.57,0-1.09.3-1.37.79l-3.36,5.81c-.28.49-.28,1.1,0,1.59l1.54,2.67c.31.53,1.07.53,1.37,0l1.55-2.69c.31-.53,1.07-.53,1.37,0l11.98,20.74c.85,1.47,2.42,2.38,4.12,2.38h13.8c1.7,0,3.27-.91,4.12-2.38l6.9-11.95c.85-1.47.85-3.29,0-4.76Z"/><path class="cls-18" d="M579.09,50.5c-.28-.49-.81-.79-1.37-.79h-3.11c-1.13,0-2.18-.6-2.75-1.59l-5.13-8.88c-.57-.98-.57-2.19,0-3.17l5.13-8.88c.57-.98,1.61-1.59,2.75-1.59h10.26c1.13,0,2.18.6,2.75,1.59l11.09,19.21c.31.53-.08,1.19-.69,1.19h-3.11c-.61,0-.99.66-.69,1.19l1.54,2.67c.28.49.81.79,1.37.79h6.71c.57,0,1.09-.3,1.37-.79l3.36-5.81c.28-.49.28-1.1,0-1.59l-1.54-2.67c-.31-.53-1.07-.53-1.37,0l-1.55,2.69c-.31.53-1.07.53-1.37,0l-11.98-20.74c-.85-1.47-2.42-2.38-4.12-2.38h-13.8c-1.7,0-3.27.91-4.12,2.38l-6.9,11.95c-.85,1.47-.85,3.29,0,4.76l6.9,11.95c.85,1.47,2.42,2.38,4.12,2.38h7.11c.61,0,.99-.66.69-1.19l-1.54-2.67Z"/></svg>